<svg width="103" height="103" viewBox="0 0 103 103" fill="none" xmlns="http://www.w3.org/2000/svg">
<g filter="url(#filter0_d_92_509)">
<rect x="4" width="95" height="95" rx="47.5" fill="white"/>
<g clip-path="url(#clip0_92_509)">
<rect x="20" y="16" width="64" height="64" rx="32" fill="white"/>
<path d="M52 80C69.644 80 84 65.644 84 48C84 30.356 69.644 16 52 16C34.356 16 20 30.356 20 48C20 65.644 34.356 80 52 80ZM52 18C68.542 18 82 31.458 82 48C82 64.542 68.542 78 52 78C35.458 78 22 64.542 22 48C22 31.458 35.458 18 52 18Z" fill="black"/>
<path d="M60.122 59.536C60.2146 59.6296 60.3249 59.7039 60.4464 59.7546C60.5679 59.8054 60.6983 59.8315 60.83 59.8315C60.9617 59.8315 61.0921 59.8054 61.2136 59.7546C61.3351 59.7039 61.4454 59.6296 61.538 59.536C61.7255 59.3485 61.8308 59.0942 61.8308 58.829C61.8308 58.5638 61.7255 58.3095 61.538 58.122L52 48.586V34.638C52 34.3728 51.8946 34.1184 51.7071 33.9309C51.5196 33.7434 51.2652 33.638 51 33.638C50.7348 33.638 50.4804 33.7434 50.2929 33.9309C50.1054 34.1184 50 34.3728 50 34.638V49C50 49.266 50.106 49.52 50.292 49.708L60.122 59.536Z" fill="black"/>
<path d="M28 50C29.1046 50 30 49.1046 30 48C30 46.8954 29.1046 46 28 46C26.8954 46 26 46.8954 26 48C26 49.1046 26.8954 50 28 50Z" fill="black"/>
<path d="M76 50C77.1046 50 78 49.1046 78 48C78 46.8954 77.1046 46 76 46C74.8954 46 74 46.8954 74 48C74 49.1046 74.8954 50 76 50Z" fill="black"/>
<path d="M52 26C53.1046 26 54 25.1046 54 24C54 22.8954 53.1046 22 52 22C50.8954 22 50 22.8954 50 24C50 25.1046 50.8954 26 52 26Z" fill="black"/>
<path d="M52 74C53.1046 74 54 73.1046 54 72C54 70.8954 53.1046 70 52 70C50.8954 70 50 70.8954 50 72C50 73.1046 50.8954 74 52 74Z" fill="black"/>
<path d="M36 34C37.1046 34 38 33.1046 38 32C38 30.8954 37.1046 30 36 30C34.8954 30 34 30.8954 34 32C34 33.1046 34.8954 34 36 34Z" fill="black"/>
<path d="M68 66C69.1046 66 70 65.1046 70 64C70 62.8954 69.1046 62 68 62C66.8954 62 66 62.8954 66 64C66 65.1046 66.8954 66 68 66Z" fill="black"/>
<path d="M70 34C71.1046 34 72 33.1046 72 32C72 30.8954 71.1046 30 70 30C68.8954 30 68 30.8954 68 32C68 33.1046 68.8954 34 70 34Z" fill="black"/>
<path d="M36 66C37.1046 66 38 65.1046 38 64C38 62.8954 37.1046 62 36 62C34.8954 62 34 62.8954 34 64C34 65.1046 34.8954 66 36 66Z" fill="black"/>
</g>
</g>
<defs>
<filter id="filter0_d_92_509" x="0" y="0" width="103" height="103" filterUnits="userSpaceOnUse" color-interpolation-filters="sRGB">
<feFlood flood-opacity="0" result="BackgroundImageFix"/>
<feColorMatrix in="SourceAlpha" type="matrix" values="0 0 0 0 0 0 0 0 0 0 0 0 0 0 0 0 0 0 127 0" result="hardAlpha"/>
<feOffset dy="4"/>
<feGaussianBlur stdDeviation="2"/>
<feComposite in2="hardAlpha" operator="out"/>
<feColorMatrix type="matrix" values="0 0 0 0 0 0 0 0 0 0 0 0 0 0 0 0 0 0 0.25 0"/>
<feBlend mode="normal" in2="BackgroundImageFix" result="effect1_dropShadow_92_509"/>
<feBlend mode="normal" in="SourceGraphic" in2="effect1_dropShadow_92_509" result="shape"/>
</filter>
<clipPath id="clip0_92_509">
<rect x="20" y="16" width="64" height="64" rx="32" fill="white"/>
</clipPath>
</defs>
</svg>
