<svg width="20" height="20" viewBox="0 0 20 20" fill="none" xmlns="http://www.w3.org/2000/svg">
<g clip-path="url(#clip0_196_3907)">
<path d="M18.2268 0.754639H1.7752C1.21169 0.754639 0.754883 1.21145 0.754883 1.77495V18.2265C0.754883 18.79 1.21169 19.2468 1.7752 19.2468H18.2268C18.7903 19.2468 19.2471 18.79 19.2471 18.2265V1.77495C19.2471 1.21145 18.7903 0.754639 18.2268 0.754639Z" fill="#3D5A98"/>
<path d="M13.5123 19.2453V12.0844H15.9154L16.2748 9.29378H13.5123V7.51253C13.5123 6.70472 13.7373 6.15316 14.8951 6.15316H16.3732V3.65316C15.6575 3.57856 14.9382 3.54309 14.2186 3.54691C12.0904 3.54691 10.6248 4.84378 10.6248 7.23597V9.29378H8.22168V12.0844H10.6248V19.2453H13.5123Z" fill="white"/>
</g>
<defs>
<clipPath id="clip0_196_3907">
<rect width="20" height="20" fill="white"/>
</clipPath>
</defs>
</svg>
