<svg width="103" height="103" viewBox="0 0 103 103" fill="none" xmlns="http://www.w3.org/2000/svg">
<g filter="url(#filter0_d_92_511)">
<rect x="4" width="95" height="95" rx="47.5" fill="#8BA7C2"/>
<path d="M55 59C55 59.2652 54.8947 59.5196 54.7071 59.7071C54.5196 59.8946 54.2652 60 54 60C53.2044 60 52.4413 59.6839 51.8787 59.1213C51.3161 58.5587 51 57.7957 51 57V47C51 46.7348 50.8947 46.4804 50.7071 46.2929C50.5196 46.1054 50.2652 46 50 46C49.7348 46 49.4804 45.8946 49.2929 45.7071C49.1054 45.5196 49 45.2652 49 45C49 44.7348 49.1054 44.4804 49.2929 44.2929C49.4804 44.1054 49.7348 44 50 44C50.7957 44 51.5587 44.3161 52.1213 44.8787C52.6839 45.4413 53 46.2044 53 47V57C53 57.2652 53.1054 57.5196 53.2929 57.7071C53.4804 57.8946 53.7348 58 54 58C54.2652 58 54.5196 58.1054 54.7071 58.2929C54.8947 58.4804 55 58.7348 55 59ZM51 38C51.3956 38 51.7823 37.8827 52.1112 37.6629C52.4401 37.4432 52.6964 37.1308 52.8478 36.7654C52.9991 36.3999 53.0388 35.9978 52.9616 35.6098C52.8844 35.2219 52.6939 34.8655 52.4142 34.5858C52.1345 34.3061 51.7782 34.1156 51.3902 34.0384C51.0022 33.9613 50.6001 34.0009 50.2346 34.1522C49.8692 34.3036 49.5568 34.56 49.3371 34.8889C49.1173 35.2178 49 35.6044 49 36C49 36.5304 49.2107 37.0391 49.5858 37.4142C49.9609 37.7893 50.4696 38 51 38ZM77 47C77 51.9445 75.5338 56.778 72.7868 60.8893C70.0397 65.0005 66.1353 68.2048 61.5671 70.097C56.9989 71.9892 51.9723 72.4843 47.1228 71.5196C42.2732 70.555 37.8187 68.174 34.3223 64.6777C30.826 61.1814 28.445 56.7268 27.4804 51.8773C26.5157 47.0277 27.0108 42.0011 28.903 37.4329C30.7952 32.8648 33.9995 28.9603 38.1108 26.2133C42.222 23.4662 47.0555 22 52 22C58.6282 22.0073 64.9828 24.6435 69.6696 29.3304C74.3565 34.0172 76.9927 40.3718 77 47ZM75 47C75 42.451 73.6511 38.0042 71.1238 34.2219C68.5965 30.4396 65.0044 27.4916 60.8017 25.7508C56.599 24.01 51.9745 23.5545 47.5129 24.4419C43.0514 25.3294 38.9532 27.5199 35.7366 30.7365C32.5199 33.9532 30.3294 38.0514 29.4419 42.5129C28.5545 46.9745 29.01 51.599 30.7508 55.8017C32.4916 60.0044 35.4396 63.5965 39.2219 66.1238C43.0042 68.6511 47.451 70 52 70C58.098 69.9934 63.9443 67.568 68.2562 63.2561C72.5681 58.9442 74.9934 53.0979 75 47Z" fill="black"/>
</g>
<defs>
<filter id="filter0_d_92_511" x="0" y="0" width="103" height="103" filterUnits="userSpaceOnUse" color-interpolation-filters="sRGB">
<feFlood flood-opacity="0" result="BackgroundImageFix"/>
<feColorMatrix in="SourceAlpha" type="matrix" values="0 0 0 0 0 0 0 0 0 0 0 0 0 0 0 0 0 0 127 0" result="hardAlpha"/>
<feOffset dy="4"/>
<feGaussianBlur stdDeviation="2"/>
<feComposite in2="hardAlpha" operator="out"/>
<feColorMatrix type="matrix" values="0 0 0 0 0 0 0 0 0 0 0 0 0 0 0 0 0 0 0.25 0"/>
<feBlend mode="normal" in2="BackgroundImageFix" result="effect1_dropShadow_92_511"/>
<feBlend mode="normal" in="SourceGraphic" in2="effect1_dropShadow_92_511" result="shape"/>
</filter>
</defs>
</svg>
