<svg width="258" height="169" viewBox="0 0 258 169" fill="none" xmlns="http://www.w3.org/2000/svg">
<path d="M181.911 61.5598C181.911 91.2071 158.366 115.223 129.344 115.223C100.322 115.223 76.7764 91.2071 76.7764 61.5598C76.7764 31.9125 100.322 7.89685 129.344 7.89685C158.366 7.89685 181.911 31.9125 181.911 61.5598Z" fill="#0054A3" stroke="#0054A3" stroke-width="3"/>
<path d="M167.914 24.3107C173.986 35.8805 175.736 49.3055 172.841 62.0933C169.946 74.8808 162.602 86.1612 152.174 93.8397C141.745 101.518 128.94 105.073 116.138 103.843C103.335 102.614 91.4055 96.6832 82.5635 87.154C86.1396 93.9567 91.0987 99.9007 97.1086 104.588C103.119 109.275 110.041 112.598 117.411 114.333C124.781 116.068 132.43 116.176 139.844 114.648C147.258 113.121 154.268 109.994 160.402 105.478C166.536 100.961 171.654 95.1584 175.412 88.4591C179.17 81.7594 181.483 74.3178 182.194 66.632C182.905 58.9462 181.999 51.1939 179.537 43.8946C177.074 36.5954 173.111 29.9201 167.914 24.3107Z" fill="#024380"/>
<path d="M70.5559 79.2242C71.4865 81.8139 74.0819 83.5295 77.7384 84.5101C81.4107 85.4945 86.2761 85.7745 91.9768 85.3956C103.385 84.6375 118.265 81.232 133.922 75.3712C149.579 69.5104 163.086 62.2902 172.268 55.3416C176.856 51.8692 180.389 48.4462 182.565 45.2747C184.731 42.1174 185.622 39.1026 184.694 36.5164C183.976 34.5197 182.264 33.0409 179.852 32.0231C177.495 31.0282 174.418 30.4495 170.787 30.2562L169.159 28.0621C177.783 27.06 185.139 27.0875 190.66 28.1628C196.402 29.2812 199.989 31.4955 201.131 34.6751C202.129 37.4531 201.241 40.9018 198.539 44.8401C195.847 48.7642 191.423 53.0684 185.584 57.4876C173.911 66.3211 156.681 75.5401 136.66 83.034C116.638 90.5279 97.6528 94.8646 83.1533 95.8278C75.8997 96.3097 69.8 95.9451 65.2636 94.7288C60.7115 93.5083 57.8547 91.4671 56.8578 88.6925C55.6956 85.4565 57.0963 81.3142 60.9026 76.5792C64.5616 72.0273 70.3442 67.0583 77.7813 62.0496L77.9042 64.6159C75.0171 67.2864 72.8472 69.8837 71.5569 72.3097C70.2411 74.7845 69.809 77.1436 70.5559 79.2242Z" fill="white"/>
<path d="M201.131 34.6751C199.989 31.4955 196.402 29.2812 190.66 28.1628C185.139 27.0875 177.783 27.06 169.159 28.0621L170.787 30.2562C174.418 30.4495 177.495 31.0282 179.852 32.0231C182.264 33.0409 183.976 34.5197 184.694 36.5164C185.622 39.1026 184.731 42.1174 182.565 45.2747C180.389 48.4462 176.856 51.8692 172.268 55.3416C163.086 62.2902 149.579 69.5104 133.922 75.3712C118.265 81.232 103.385 84.6375 91.9768 85.3956C86.2761 85.7745 81.4107 85.4945 77.7384 84.5101C74.0819 83.5295 71.4865 81.8139 70.5559 79.2242C69.809 77.1436 70.2411 74.7845 71.5569 72.3097C72.8472 69.8837 75.0171 67.2864 77.9042 64.6159L77.7813 62.0496C70.3442 67.0583 64.5616 72.0273 60.9026 76.5792C57.0963 81.3142 55.6956 85.4565 56.8578 88.6925C57.8547 91.4671 60.7115 93.5083 65.2636 94.7288C69.8 95.9451 75.8997 96.3097 83.1533 95.8278C97.6528 94.8646 116.638 90.5279 136.66 83.034C156.681 75.5401 173.911 66.3211 185.584 57.4876C191.423 53.0684 195.847 48.7642 198.539 44.8401C201.241 40.9018 202.129 37.4531 201.131 34.6751ZM201.131 34.6751L201.623 34.4985" stroke="#0054A3" stroke-width="3"/>
<path d="M176.352 117.116C178.564 117.116 180.356 115.323 180.356 113.112C180.356 110.9 178.564 109.107 176.352 109.107C174.141 109.107 172.348 110.9 172.348 113.112C172.348 115.323 174.141 117.116 176.352 117.116Z" fill="white" stroke="black" stroke-width="2"/>
<path d="M185.231 53.9152C185.231 54.3532 184.984 54.8153 184.452 55.1952C183.921 55.5741 183.152 55.8304 182.271 55.8304C181.39 55.8304 180.622 55.5741 180.091 55.1952C179.559 54.8153 179.312 54.3532 179.312 53.9152C179.312 53.4771 179.559 53.015 180.091 52.6351C180.622 52.2563 181.39 52 182.271 52C183.152 52 183.921 52.2563 184.452 52.6351C184.984 53.015 185.231 53.4771 185.231 53.9152Z" fill="white" stroke="black" stroke-width="2"/>
<path d="M70.3321 27.2768C73.2165 27.2768 75.5548 24.9383 75.5548 22.0536C75.5548 19.1689 73.2165 16.8304 70.3321 16.8304C67.4477 16.8304 65.1094 19.1689 65.1094 22.0536C65.1094 24.9383 67.4477 27.2768 70.3321 27.2768Z" fill="white" stroke="black" stroke-width="2"/>
<path d="M65.1135 22.7051L67.8989 20.2676" stroke="black"/>
<path d="M66.158 24.4462L68.9434 22.0087" stroke="black"/>
<path d="M67.5508 25.839L70.3363 23.4015" stroke="black"/>
<path d="M58.1179 163.777V157.943H61.8448V158.971H59.3713V160.309H61.7612V161.336H59.3713V162.749H61.8448V163.777H58.1179ZM71.5767 163.777H70.1478L69.5461 162.615L69.1367 161.696H69.0615L68.6437 162.615L68.0253 163.777H66.7134L68.3512 160.76L66.822 157.943H68.2509L68.7272 158.871L69.1534 159.807H69.2202L69.6548 158.871L70.1561 157.943H71.4681L69.9389 160.777L71.5767 163.777ZM76.4617 163.777V157.943H78.7179C79.002 157.943 79.2554 157.988 79.4783 158.077C79.7011 158.161 79.8877 158.283 80.0381 158.445C80.1941 158.606 80.3111 158.801 80.3891 159.03C80.4671 159.258 80.5061 159.515 80.5061 159.799C80.5061 160.083 80.4671 160.339 80.3891 160.568C80.3111 160.796 80.1941 160.991 80.0381 161.153C79.8877 161.314 79.7011 161.44 79.4783 161.529C79.2554 161.612 79.002 161.654 78.7179 161.654H77.7235V163.777H76.4617ZM77.7235 160.643H78.4003C78.6956 160.643 78.8989 160.587 79.0103 160.476C79.1273 160.364 79.1858 160.18 79.1858 159.924V159.673C79.1858 159.417 79.1273 159.233 79.0103 159.122C78.8989 159.01 78.6956 158.955 78.4003 158.955H77.7235V160.643ZM85.7841 163.777V157.943H87.0459V162.749H89.5528V163.777H85.7841ZM96.711 163.877C95.9311 163.877 95.3545 163.612 94.9813 163.083C94.6136 162.554 94.4297 161.813 94.4297 160.86C94.4297 159.907 94.6136 159.166 94.9813 158.637C95.3545 158.108 95.9311 157.843 96.711 157.843C97.4909 157.843 98.0647 158.108 98.4324 158.637C98.8056 159.166 98.9923 159.907 98.9923 160.86C98.9923 161.813 98.8056 162.554 98.4324 163.083C98.0647 163.612 97.4909 163.877 96.711 163.877ZM96.711 162.866C97.0675 162.866 97.3127 162.735 97.4464 162.473C97.5856 162.206 97.6553 161.835 97.6553 161.362V160.35C97.6553 159.882 97.5856 159.517 97.4464 159.256C97.3127 158.988 97.0675 158.854 96.711 158.854C96.3545 158.854 96.1066 158.988 95.9673 159.256C95.8336 159.517 95.7667 159.882 95.7667 160.35V161.37C95.7667 161.838 95.8336 162.206 95.9673 162.473C96.1066 162.735 96.3545 162.866 96.711 162.866ZM105.264 163.777H104.028V157.943H106.284C106.568 157.943 106.821 157.988 107.044 158.077C107.267 158.161 107.454 158.283 107.604 158.445C107.76 158.606 107.877 158.801 107.955 159.03C108.033 159.258 108.072 159.515 108.072 159.799C108.072 160.211 107.983 160.565 107.805 160.86C107.626 161.155 107.373 161.35 107.044 161.445L108.189 163.777H106.819L105.841 161.612H105.264V163.777ZM105.983 160.643C106.278 160.643 106.482 160.587 106.593 160.476C106.71 160.364 106.768 160.18 106.768 159.924V159.673C106.768 159.417 106.71 159.233 106.593 159.122C106.482 159.01 106.278 158.955 105.983 158.955H105.264V160.643H105.983ZM113.25 163.777V157.943H116.977V158.971H114.503V160.309H116.893V161.336H114.503V162.749H116.977V163.777H113.25ZM134.092 158.971V163.777H132.839V158.971H131.159V157.943H135.772V158.971H134.092ZM142.654 163.877C141.874 163.877 141.298 163.612 140.924 163.083C140.557 162.554 140.373 161.813 140.373 160.86C140.373 159.907 140.557 159.166 140.924 158.637C141.298 158.108 141.874 157.843 142.654 157.843C143.434 157.843 144.008 158.108 144.376 158.637C144.749 159.166 144.935 159.907 144.935 160.86C144.935 161.813 144.749 162.554 144.376 163.083C144.008 163.612 143.434 163.877 142.654 163.877ZM142.654 162.866C143.011 162.866 143.256 162.735 143.39 162.473C143.529 162.206 143.598 161.835 143.598 161.362V160.35C143.598 159.882 143.529 159.517 143.39 159.256C143.256 158.988 143.011 158.854 142.654 158.854C142.298 158.854 142.05 158.988 141.91 159.256C141.777 159.517 141.71 159.882 141.71 160.35V161.37C141.71 161.838 141.777 162.206 141.91 162.473C142.05 162.735 142.298 162.866 142.654 162.866ZM152.77 162.949H152.695C152.645 163.072 152.584 163.189 152.511 163.3C152.439 163.412 152.35 163.512 152.244 163.601C152.138 163.685 152.012 163.752 151.868 163.802C151.728 163.852 151.57 163.877 151.391 163.877C151.107 163.877 150.854 163.81 150.631 163.676C150.414 163.543 150.23 163.348 150.079 163.091C149.929 162.835 149.815 162.523 149.737 162.155C149.664 161.788 149.628 161.373 149.628 160.91C149.628 159.919 149.809 159.161 150.171 158.637C150.533 158.108 151.093 157.843 151.851 157.843C152.152 157.843 152.416 157.885 152.645 157.969C152.873 158.047 153.068 158.161 153.23 158.311C153.397 158.456 153.533 158.632 153.639 158.838C153.745 159.044 153.829 159.272 153.89 159.523L152.72 159.807C152.687 159.685 152.648 159.568 152.603 159.456C152.564 159.339 152.511 159.236 152.444 159.147C152.377 159.058 152.294 158.988 152.194 158.938C152.093 158.882 151.971 158.854 151.826 158.854C151.508 158.854 151.283 158.985 151.149 159.247C151.021 159.509 150.957 159.877 150.957 160.35V161.303C150.957 161.777 151.026 162.155 151.166 162.44C151.311 162.724 151.564 162.866 151.926 162.866C152.21 162.866 152.422 162.782 152.561 162.615C152.7 162.448 152.77 162.233 152.77 161.972V161.545H151.776V160.66H153.89V163.777H152.77V162.949ZM159.193 163.777V157.943H162.92V158.971H160.446V160.309H162.836V161.336H160.446V162.749H162.92V163.777H159.193ZM170.847 158.971V163.777H169.593V158.971H167.914V157.943H172.526V158.971H170.847ZM180.144 161.336H178.673V163.777H177.411V157.943H178.673V160.309H180.144V157.943H181.406V163.777H180.144V161.336ZM186.759 163.777V157.943H190.486V158.971H188.012V160.309H190.402V161.336H188.012V162.749H190.486V163.777H186.759ZM197.151 163.777H195.914V157.943H198.17C198.454 157.943 198.708 157.988 198.931 158.077C199.153 158.161 199.34 158.283 199.49 158.445C199.646 158.606 199.763 158.801 199.841 159.03C199.919 159.258 199.958 159.515 199.958 159.799C199.958 160.211 199.869 160.565 199.691 160.86C199.513 161.155 199.259 161.35 198.931 161.445L200.075 163.777H198.705L197.727 161.612H197.151V163.777ZM197.869 160.643C198.165 160.643 198.368 160.587 198.479 160.476C198.596 160.364 198.655 160.18 198.655 159.924V159.673C198.655 159.417 198.596 159.233 198.479 159.122C198.368 159.01 198.165 158.955 197.869 158.955H197.151V160.643H197.869Z" fill="#0054A3"/>
<path d="M3.96088 152.088C2.791 152.088 1.92195 151.695 1.35372 150.91C0.793851 150.116 0.513916 149 0.513916 147.563C0.513916 146.125 0.793851 145.014 1.35372 144.228C1.92195 143.434 2.791 143.037 3.96088 143.037C4.41212 143.037 4.80904 143.1 5.15165 143.225C5.50261 143.342 5.80344 143.509 6.05413 143.727C6.30481 143.944 6.50954 144.207 6.66831 144.516C6.83544 144.826 6.96496 145.172 7.05688 145.557L5.30206 145.983C5.25192 145.774 5.19343 145.582 5.12658 145.406C5.05973 145.231 4.97199 145.08 4.86336 144.955C4.76308 144.83 4.63356 144.734 4.47479 144.667C4.32438 144.592 4.14054 144.554 3.92328 144.554C3.41354 144.554 3.05005 144.755 2.83278 145.156C2.62388 145.548 2.51942 146.096 2.51942 146.798V148.327C2.51942 149.029 2.62388 149.581 2.83278 149.982C3.05005 150.375 3.41354 150.571 3.92328 150.571C4.3578 150.571 4.67116 150.437 4.86336 150.17C5.06391 149.903 5.21014 149.56 5.30206 149.142L7.05688 149.568C6.96496 149.953 6.83544 150.299 6.66831 150.609C6.50954 150.918 6.30481 151.185 6.05413 151.411C5.80344 151.628 5.50261 151.795 5.15165 151.912C4.80904 152.029 4.41212 152.088 3.96088 152.088ZM14.4097 152.088C13.2398 152.088 12.3749 151.691 11.815 150.897C11.2635 150.103 10.9878 148.992 10.9878 147.563C10.9878 146.133 11.2635 145.022 11.815 144.228C12.3749 143.434 13.2398 143.037 14.4097 143.037C15.5795 143.037 16.4402 143.434 16.9918 144.228C17.5516 145.022 17.8316 146.133 17.8316 147.563C17.8316 148.992 17.5516 150.103 16.9918 150.897C16.4402 151.691 15.5795 152.088 14.4097 152.088ZM14.4097 150.571C14.9445 150.571 15.3121 150.375 15.5127 149.982C15.7216 149.581 15.8261 149.025 15.8261 148.315V146.798C15.8261 146.096 15.7216 145.548 15.5127 145.156C15.3121 144.755 14.9445 144.554 14.4097 144.554C13.8749 144.554 13.503 144.755 13.2941 145.156C13.0936 145.548 12.9933 146.096 12.9933 146.798V148.327C12.9933 149.029 13.0936 149.581 13.2941 149.982C13.503 150.375 13.8749 150.571 14.4097 150.571ZM26.7011 148.039L26.8013 145.594H26.6885L25.059 150.095L23.4296 145.594H23.3168L23.417 148.039V151.937H21.7876V143.188H24.0062L25.0841 146.133H25.1844L26.2624 143.188H28.3305V151.937H26.7011V148.039ZM37.3505 148.039L37.4507 145.594H37.3379L35.7085 150.095L34.0789 145.594H33.9661L34.0664 148.039V151.937H32.4369V143.188H34.6555L35.7335 146.133H35.8338L36.9118 143.188H38.9799V151.937H37.3505V148.039ZM45.1671 143.188V148.728C45.1671 149.004 45.1754 149.259 45.1921 149.493C45.2172 149.719 45.2673 149.911 45.3425 150.07C45.4261 150.228 45.5473 150.354 45.706 150.446C45.8648 150.529 46.0821 150.571 46.3578 150.571C46.6336 150.571 46.8509 150.529 47.0096 150.446C47.1684 150.354 47.2854 150.228 47.3606 150.07C47.4441 149.911 47.4943 149.719 47.511 149.493C47.5361 149.259 47.5486 149.004 47.5486 148.728V143.188H49.4288V148.478C49.4288 149.079 49.387 149.606 49.3034 150.057C49.2282 150.508 49.0778 150.884 48.8522 151.185C48.6266 151.486 48.3132 151.712 47.9121 151.862C47.511 152.013 46.9929 152.088 46.3578 152.088C45.7228 152.088 45.2047 152.013 44.8036 151.862C44.4025 151.712 44.0891 151.486 43.8635 151.185C43.6379 150.884 43.4833 150.508 43.3997 150.057C43.3245 149.606 43.2869 149.079 43.2869 148.478V143.188H45.1671ZM55.7538 146.121H55.6159V151.937H54.0115V143.188H56.2677L58.2607 149.004H58.3985V143.188H60.0029V151.937H57.7467L55.7538 146.121ZM64.8363 151.937V150.546H66.7165V144.579H64.8363V143.188H70.4768V144.579H68.5967V150.546H70.4768V151.937H64.8363ZM79.246 144.729V151.937H77.3659V144.729H74.8465V143.188H81.7655V144.729H79.246ZM88.0153 151.937V148.841L85.2452 143.188H87.3384L88.2659 145.218L88.9428 146.936H89.0431L89.7199 145.218L90.6475 143.188H92.6655L89.8954 148.841V151.937H88.0153ZM110.116 152.088C109.381 152.088 108.741 151.967 108.198 151.724C107.655 151.482 107.216 151.152 106.882 150.734L107.972 149.531C108.29 149.882 108.637 150.141 109.013 150.308C109.397 150.475 109.786 150.559 110.179 150.559C110.63 150.559 110.972 150.458 111.206 150.258C111.44 150.057 111.557 149.769 111.557 149.393C111.557 149.084 111.465 148.85 111.282 148.691C111.106 148.532 110.805 148.419 110.379 148.352L109.464 148.202C108.679 148.068 108.11 147.78 107.759 147.337C107.408 146.886 107.233 146.338 107.233 145.695C107.233 144.851 107.509 144.199 108.06 143.739C108.612 143.271 109.385 143.037 110.379 143.037C111.056 143.037 111.645 143.142 112.146 143.351C112.648 143.559 113.053 143.844 113.362 144.203L112.297 145.394C112.063 145.135 111.787 144.934 111.47 144.792C111.152 144.642 110.793 144.566 110.392 144.566C109.548 144.566 109.126 144.913 109.126 145.607C109.126 145.908 109.218 146.133 109.401 146.284C109.594 146.434 109.903 146.547 110.329 146.622L111.244 146.785C111.954 146.911 112.502 147.178 112.886 147.588C113.27 147.997 113.463 148.549 113.463 149.242C113.463 149.652 113.392 150.032 113.249 150.383C113.107 150.726 112.894 151.027 112.61 151.286C112.326 151.536 111.975 151.733 111.557 151.875C111.148 152.017 110.667 152.088 110.116 152.088ZM121.104 152.088C119.934 152.088 119.065 151.695 118.497 150.91C117.937 150.116 117.657 149 117.657 147.563C117.657 146.125 117.937 145.014 118.497 144.228C119.065 143.434 119.934 143.037 121.104 143.037C121.555 143.037 121.952 143.1 122.294 143.225C122.645 143.342 122.946 143.509 123.197 143.727C123.448 143.944 123.652 144.207 123.811 144.516C123.978 144.826 124.108 145.172 124.2 145.557L122.445 145.983C122.395 145.774 122.336 145.582 122.269 145.406C122.203 145.231 122.115 145.08 122.006 144.955C121.906 144.83 121.776 144.734 121.618 144.667C121.467 144.592 121.283 144.554 121.066 144.554C120.556 144.554 120.193 144.755 119.976 145.156C119.767 145.548 119.662 146.096 119.662 146.798V148.327C119.662 149.029 119.767 149.581 119.976 149.982C120.193 150.375 120.556 150.571 121.066 150.571C121.501 150.571 121.814 150.437 122.006 150.17C122.207 149.903 122.353 149.56 122.445 149.142L124.2 149.568C124.108 149.953 123.978 150.299 123.811 150.609C123.652 150.918 123.448 151.185 123.197 151.411C122.946 151.628 122.645 151.795 122.294 151.912C121.952 152.029 121.555 152.088 121.104 152.088ZM128.732 151.937V150.546H130.612V144.579H128.732V143.188H134.373V144.579H132.493V150.546H134.373V151.937H128.732ZM139.444 151.937V143.188H145.035V144.729H141.324V146.735H144.909V148.277H141.324V150.396H145.035V151.937H139.444ZM151.598 146.121H151.46V151.937H149.856V143.188H152.112L154.105 149.004H154.243V143.188H155.847V151.937H153.591L151.598 146.121ZM163.701 152.088C162.531 152.088 161.662 151.695 161.094 150.91C160.534 150.116 160.254 149 160.254 147.563C160.254 146.125 160.534 145.014 161.094 144.228C161.662 143.434 162.531 143.037 163.701 143.037C164.152 143.037 164.549 143.1 164.892 143.225C165.243 143.342 165.544 143.509 165.794 143.727C166.045 143.944 166.25 144.207 166.409 144.516C166.576 144.826 166.705 145.172 166.797 145.557L165.042 145.983C164.992 145.774 164.934 145.582 164.867 145.406C164.8 145.231 164.712 145.08 164.604 144.955C164.503 144.83 164.374 144.734 164.215 144.667C164.065 144.592 163.881 144.554 163.664 144.554C163.154 144.554 162.79 144.755 162.573 145.156C162.364 145.548 162.26 146.096 162.26 146.798V148.327C162.26 149.029 162.364 149.581 162.573 149.982C162.79 150.375 163.154 150.571 163.664 150.571C164.098 150.571 164.411 150.437 164.604 150.17C164.804 149.903 164.95 149.56 165.042 149.142L166.797 149.568C166.705 149.953 166.576 150.299 166.409 150.609C166.25 150.918 166.045 151.185 165.794 151.411C165.544 151.628 165.243 151.795 164.892 151.912C164.549 152.029 164.152 152.088 163.701 152.088ZM171.392 151.937V143.188H176.983V144.729H173.273V146.735H176.857V148.277H173.273V150.396H176.983V151.937H171.392ZM197.091 148.039L197.191 145.594H197.078L195.449 150.095L193.819 145.594H193.706L193.807 148.039V151.937H192.177V143.188H194.396L195.474 146.133H195.574L196.652 143.188H198.72V151.937H197.091V148.039ZM204.907 143.188V148.728C204.907 149.004 204.916 149.259 204.932 149.493C204.957 149.719 205.008 149.911 205.083 150.07C205.166 150.228 205.288 150.354 205.446 150.446C205.605 150.529 205.822 150.571 206.098 150.571C206.374 150.571 206.591 150.529 206.75 150.446C206.909 150.354 207.026 150.228 207.101 150.07C207.184 149.911 207.235 149.719 207.251 149.493C207.276 149.259 207.289 149.004 207.289 148.728V143.188H209.169V148.478C209.169 149.079 209.127 149.606 209.044 150.057C208.969 150.508 208.818 150.884 208.592 151.185C208.367 151.486 208.053 151.712 207.652 151.862C207.251 152.013 206.733 152.088 206.098 152.088C205.463 152.088 204.945 152.013 204.544 151.862C204.143 151.712 203.829 151.486 203.604 151.185C203.378 150.884 203.224 150.508 203.14 150.057C203.065 149.606 203.027 149.079 203.027 148.478V143.188H204.907ZM216.61 152.088C215.874 152.088 215.235 151.967 214.692 151.724C214.149 151.482 213.71 151.152 213.376 150.734L214.466 149.531C214.784 149.882 215.131 150.141 215.507 150.308C215.891 150.475 216.28 150.559 216.672 150.559C217.124 150.559 217.466 150.458 217.7 150.258C217.934 150.057 218.051 149.769 218.051 149.393C218.051 149.084 217.959 148.85 217.775 148.691C217.6 148.532 217.299 148.419 216.873 148.352L215.958 148.202C215.172 148.068 214.604 147.78 214.253 147.337C213.902 146.886 213.727 146.338 213.727 145.695C213.727 144.851 214.002 144.199 214.554 143.739C215.105 143.271 215.878 143.037 216.873 143.037C217.55 143.037 218.139 143.142 218.64 143.351C219.142 143.559 219.547 143.844 219.856 144.203L218.791 145.394C218.557 145.135 218.281 144.934 217.963 144.792C217.646 144.642 217.286 144.566 216.885 144.566C216.041 144.566 215.619 144.913 215.619 145.607C215.619 145.908 215.711 146.133 215.895 146.284C216.087 146.434 216.397 146.547 216.823 146.622L217.738 146.785C218.448 146.911 218.995 147.178 219.38 147.588C219.764 147.997 219.956 148.549 219.956 149.242C219.956 149.652 219.885 150.032 219.743 150.383C219.601 150.726 219.388 151.027 219.104 151.286C218.82 151.536 218.469 151.733 218.051 151.875C217.642 152.017 217.161 152.088 216.61 152.088ZM224.639 151.937V143.188H230.23V144.729H226.519V146.735H230.104V148.277H226.519V150.396H230.23V151.937H224.639ZM236.855 143.188V148.728C236.855 149.004 236.864 149.259 236.881 149.493C236.906 149.719 236.956 149.911 237.031 150.07C237.115 150.228 237.236 150.354 237.394 150.446C237.553 150.529 237.77 150.571 238.046 150.571C238.322 150.571 238.539 150.529 238.698 150.446C238.857 150.354 238.974 150.228 239.049 150.07C239.133 149.911 239.183 149.719 239.199 149.493C239.224 149.259 239.237 149.004 239.237 148.728V143.188H241.117V148.478C241.117 149.079 241.075 149.606 240.992 150.057C240.917 150.508 240.766 150.884 240.541 151.185C240.315 151.486 240.002 151.712 239.601 151.862C239.199 152.013 238.681 152.088 238.046 152.088C237.411 152.088 236.893 152.013 236.492 151.862C236.091 151.712 235.778 151.486 235.552 151.185C235.326 150.884 235.172 150.508 235.088 150.057C235.013 149.606 234.975 149.079 234.975 148.478V143.188H236.855ZM250.338 148.039L250.438 145.594H250.325L248.696 150.095L247.066 145.594H246.953L247.054 148.039V151.937H245.424V143.188H247.643L248.721 146.133H248.821L249.899 143.188H251.967V151.937H250.338V148.039Z" fill="black"/>
</svg>
