<svg width="101" height="70" viewBox="0 0 101 70" fill="none" xmlns="http://www.w3.org/2000/svg">
<path d="M71.2133 28.1259C71.2133 39.6808 61.996 49.0408 50.6347 49.0408C39.2732 49.0408 30.0559 39.6808 30.0559 28.1259C30.0559 16.5711 39.2732 7.21112 50.6347 7.21112C61.996 7.21112 71.2133 16.5711 71.2133 28.1259Z" fill="#EA5A47" stroke="#EA5A47" stroke-width="2"/>
<path d="M65.734 13.6083C68.1107 18.1175 68.796 23.3498 67.6627 28.3338C66.5293 33.3177 63.6544 37.7141 59.5719 40.7068C55.4894 43.6994 50.4767 45.0848 45.4649 44.6056C40.4531 44.1263 35.7828 41.815 32.3214 38.101C33.7214 40.7524 35.6627 43.069 38.0154 44.8958C40.3683 46.7227 43.078 48.0177 45.9632 48.6938C48.8486 49.3701 51.8428 49.412 54.7453 48.8168C57.6477 48.2215 60.3916 47.0029 62.793 45.2426C65.1944 43.4822 67.1978 41.2207 68.669 38.6097C70.1404 35.9986 71.0456 33.0982 71.324 30.1027C71.6025 27.1072 71.2478 24.0858 70.2838 21.241C69.3197 18.3961 67.7685 15.7945 65.734 13.6083Z" fill="#D22F27"/>
<path d="M27.6207 35.0104C27.985 36.0197 29.001 36.6884 30.4324 37.0705C31.87 37.4542 33.7747 37.5633 36.0064 37.4157C40.4725 37.1202 46.2973 35.7929 52.4267 33.5087C58.5561 31.2245 63.8437 28.4105 67.4381 25.7023C69.2343 24.349 70.6172 23.0149 71.4691 21.7788C72.3172 20.5483 72.666 19.3733 72.3026 18.3653C72.0215 17.5871 71.3515 17.0108 70.4073 16.6141C69.4845 16.2263 68.2799 16.0008 66.8585 15.9255L66.2209 15.0703C69.597 14.6797 72.4768 14.6905 74.6381 15.1095C76.8862 15.5455 78.2904 16.4085 78.7373 17.6477C79.1281 18.7304 78.7802 20.0745 77.7225 21.6094C76.6688 23.1388 74.9369 24.8164 72.6511 26.5387C68.0816 29.9815 61.3364 33.5745 53.4985 36.4953C45.6605 39.416 38.2284 41.1062 32.5522 41.4815C29.7126 41.6694 27.3247 41.5273 25.5489 41.0532C23.7668 40.5775 22.6485 39.782 22.2582 38.7006C21.8033 37.4394 22.3516 35.825 23.8417 33.9795C25.2741 32.2055 27.5378 30.2688 30.4492 28.3167L30.4973 29.3169C29.3671 30.3577 28.5177 31.37 28.0125 32.3155C27.4974 33.2801 27.3283 34.1995 27.6207 35.0104Z" fill="white"/>
<path d="M78.7373 17.6477C78.2904 16.4085 76.8862 15.5455 74.6381 15.1095C72.4768 14.6905 69.597 14.6797 66.2209 15.0703L66.8585 15.9255C68.2799 16.0008 69.4845 16.2263 70.4073 16.6141C71.3515 17.0108 72.0215 17.5871 72.3026 18.3653C72.666 19.3733 72.3172 20.5483 71.4691 21.7788C70.6172 23.0149 69.2343 24.349 67.4381 25.7023C63.8437 28.4105 58.5561 31.2245 52.4267 33.5087C46.2973 35.7929 40.4725 37.1202 36.0064 37.4157C33.7747 37.5633 31.87 37.4542 30.4324 37.0705C29.001 36.6884 27.985 36.0197 27.6207 35.0104C27.3283 34.1995 27.4974 33.2801 28.0125 32.3155C28.5177 31.37 29.3671 30.3577 30.4973 29.3169L30.4492 28.3167C27.5378 30.2688 25.2741 32.2055 23.8417 33.9795C22.3516 35.825 21.8033 37.4394 22.2582 38.7006C22.6485 39.782 23.7668 40.5775 25.5489 41.0532C27.3247 41.5273 29.7126 41.6694 32.5522 41.4815C38.2284 41.1062 45.6605 39.416 53.4985 36.4953C61.3364 33.5745 68.0816 29.9815 72.6511 26.5387C74.9369 24.8164 76.6688 23.1388 77.7225 21.6094C78.7802 20.0745 79.1281 18.7304 78.7373 17.6477ZM78.7373 17.6477L78.9297 17.5789" stroke="#EA5A47"/>
<path d="M69.0371 49.7786C69.9028 49.7786 70.6046 49.0798 70.6046 48.2178C70.6046 47.3559 69.9028 46.6571 69.0371 46.6571C68.1714 46.6571 67.4696 47.3559 67.4696 48.2178C67.4696 49.0798 68.1714 49.7786 69.0371 49.7786Z" fill="white" stroke="#D5AA13"/>
<path d="M72.5128 25.1464C72.5128 25.3172 72.416 25.4972 72.2078 25.6453C72.0001 25.793 71.6992 25.8929 71.3542 25.8929C71.0093 25.8929 70.7084 25.793 70.5007 25.6453C70.2925 25.4972 70.1957 25.3172 70.1957 25.1464C70.1957 24.9757 70.2925 24.7956 70.5007 24.6475C70.7084 24.4999 71.0093 24.4 71.3542 24.4C71.6992 24.4 72.0001 24.4999 72.2078 24.6475C72.416 24.7956 72.5128 24.9757 72.5128 25.1464Z" fill="white" stroke="#D5AA13" stroke-width="0.7"/>
<path d="M27.5331 14.7643C28.6622 14.7643 29.5776 13.8529 29.5776 12.7286C29.5776 11.6043 28.6622 10.6929 27.5331 10.6929C26.4039 10.6929 25.4885 11.6043 25.4885 12.7286C25.4885 13.8529 26.4039 14.7643 27.5331 14.7643Z" fill="white" stroke="#D5AA13"/>
<path d="M25.4901 12.9825L26.5805 12.0325" stroke="#D5AA13" stroke-width="0.5"/>
<path d="M25.899 13.6611L26.9895 12.7111" stroke="#D5AA13" stroke-width="0.5"/>
<path d="M26.4443 14.2039L27.5348 13.2539" stroke="#D5AA13" stroke-width="0.5"/>
<path d="M22.7516 67.9643V65.6908H24.2106V66.0914H23.2423V66.6126H24.1779V67.0132H23.2423V67.5637H24.2106V67.9643H22.7516ZM28.0204 67.9643H27.461L27.2254 67.5116L27.0651 67.1533H27.0357L26.8721 67.5116L26.6301 67.9643H26.1165L26.7576 66.7885L26.159 65.6908H26.7184L26.9049 66.0524L27.0717 66.4172H27.0979L27.268 66.0524L27.4642 65.6908H27.9778L27.3792 66.795L28.0204 67.9643ZM29.9327 67.9643V65.6908H30.8159C30.9271 65.6908 31.0264 65.7082 31.1136 65.7429C31.2008 65.7755 31.2739 65.8233 31.3328 65.8862C31.3938 65.9492 31.4396 66.0252 31.4702 66.1142C31.5007 66.2033 31.516 66.3032 31.516 66.4139C31.516 66.5246 31.5007 66.6245 31.4702 66.7136C31.4396 66.8026 31.3938 66.8786 31.3328 66.9416C31.2739 67.0045 31.2008 67.0534 31.1136 67.0881C31.0264 67.1207 30.9271 67.137 30.8159 67.137H30.4266V67.9643H29.9327ZM30.4266 66.7429H30.6916C30.8072 66.7429 30.8868 66.7212 30.9304 66.6777C30.9762 66.6343 30.9991 66.5626 30.9991 66.4628V66.365C30.9991 66.2652 30.9762 66.1935 30.9304 66.1501C30.8868 66.1066 30.8072 66.0849 30.6916 66.0849H30.4266V66.7429ZM33.5822 67.9643V65.6908H34.0761V67.5637H35.0575V67.9643H33.5822ZM37.8597 68.0034C37.5544 68.0034 37.3287 67.9002 37.1826 67.694C37.0387 67.4877 36.9667 67.1989 36.9667 66.8276C36.9667 66.4562 37.0387 66.1674 37.1826 65.9612C37.3287 65.7549 37.5544 65.6517 37.8597 65.6517C38.1651 65.6517 38.3897 65.7549 38.5336 65.9612C38.6797 66.1674 38.7528 66.4562 38.7528 66.8276C38.7528 67.1989 38.6797 67.4877 38.5336 67.694C38.3897 67.9002 38.1651 68.0034 37.8597 68.0034ZM37.8597 67.6093C37.9993 67.6093 38.0953 67.5582 38.1476 67.4562C38.2021 67.352 38.2294 67.2076 38.2294 67.023V66.6289C38.2294 66.4465 38.2021 66.3042 38.1476 66.2022C38.0953 66.098 37.9993 66.0458 37.8597 66.0458C37.7202 66.0458 37.6231 66.098 37.5686 66.2022C37.5163 66.3042 37.4901 66.4465 37.4901 66.6289V67.0262C37.4901 67.2086 37.5163 67.352 37.5686 67.4562C37.6231 67.5582 37.7202 67.6093 37.8597 67.6093ZM41.2081 67.9643H40.724V65.6908H41.6072C41.7185 65.6908 41.8177 65.7082 41.9049 65.7429C41.9922 65.7755 42.0652 65.8233 42.1241 65.8862C42.1852 65.9492 42.231 66.0252 42.2615 66.1142C42.292 66.2033 42.3073 66.3032 42.3073 66.4139C42.3073 66.5746 42.2724 66.7125 42.2026 66.8276C42.1328 66.9427 42.0336 67.0186 41.9049 67.0556L42.3531 67.9643H41.8166L41.4339 67.1207H41.2081V67.9643ZM41.4895 66.7429C41.6051 66.7429 41.6847 66.7212 41.7283 66.6777C41.7741 66.6343 41.797 66.5626 41.797 66.4628V66.365C41.797 66.2652 41.7741 66.1935 41.7283 66.1501C41.6847 66.1066 41.6051 66.0849 41.4895 66.0849H41.2081V66.7429H41.4895ZM44.3342 67.9643V65.6908H45.7932V66.0914H44.8249V66.6126H45.7605V67.0132H44.8249V67.5637H45.7932V67.9643H44.3342ZM52.4934 66.0914V67.9643H52.0027V66.0914H51.3452V65.6908H53.1509V66.0914H52.4934ZM55.8452 68.0034C55.5399 68.0034 55.3142 67.9002 55.1681 67.694C55.0241 67.4877 54.9522 67.1989 54.9522 66.8276C54.9522 66.4562 55.0241 66.1674 55.1681 65.9612C55.3142 65.7549 55.5399 65.6517 55.8452 65.6517C56.1506 65.6517 56.3752 65.7549 56.5191 65.9612C56.6652 66.1674 56.7383 66.4562 56.7383 66.8276C56.7383 67.1989 56.6652 67.4877 56.5191 67.694C56.3752 67.9002 56.1506 68.0034 55.8452 68.0034ZM55.8452 67.6093C55.9848 67.6093 56.0808 67.5582 56.1331 67.4562C56.1876 67.352 56.2149 67.2076 56.2149 67.023V66.6289C56.2149 66.4465 56.1876 66.3042 56.1331 66.2022C56.0808 66.098 55.9848 66.0458 55.8452 66.0458C55.7057 66.0458 55.6086 66.098 55.5541 66.2022C55.5018 66.3042 55.4756 66.4465 55.4756 66.6289V67.0262C55.4756 67.2086 55.5018 67.352 55.5541 67.4562C55.6086 67.5582 55.7057 67.6093 55.8452 67.6093ZM59.8054 67.6419H59.7759C59.7563 67.6896 59.7323 67.7352 59.704 67.7787C59.6756 67.8221 59.6407 67.8612 59.5993 67.8959C59.5578 67.9285 59.5088 67.9545 59.4521 67.9741C59.3975 67.9936 59.3354 68.0034 59.2656 68.0034C59.1544 68.0034 59.0552 67.9773 58.9679 67.9252C58.8829 67.8731 58.8109 67.7971 58.752 67.6972C58.6931 67.5973 58.6484 67.4757 58.6179 67.3324C58.5895 67.1891 58.5754 67.0273 58.5754 66.8471C58.5754 66.4606 58.6462 66.1653 58.788 65.9612C58.9298 65.7549 59.1489 65.6517 59.4455 65.6517C59.5633 65.6517 59.6669 65.668 59.7563 65.7006C59.8457 65.731 59.922 65.7755 59.9853 65.8341C60.0507 65.8906 60.1041 65.959 60.1456 66.0393C60.187 66.1197 60.2197 66.2087 60.2437 66.3064L59.7857 66.4172C59.7726 66.3694 59.7574 66.3238 59.7399 66.2804C59.7247 66.2348 59.704 66.1946 59.6778 66.1598C59.6516 66.1251 59.6189 66.098 59.5796 66.0784C59.5404 66.0567 59.4924 66.0458 59.4357 66.0458C59.3114 66.0458 59.2231 66.0969 59.1707 66.1989C59.1206 66.301 59.0955 66.4443 59.0955 66.6289V67.0002C59.0955 67.1848 59.1228 67.3324 59.1773 67.4432C59.234 67.5539 59.3332 67.6093 59.475 67.6093C59.5862 67.6093 59.6691 67.5767 59.7236 67.5116C59.7781 67.4464 59.8054 67.3628 59.8054 67.2608V67.0946H59.4161V66.7494H60.2437V67.9643H59.8054V67.6419ZM62.3197 67.9643V65.6908H63.7787V66.0914H62.8104V66.6126H63.746V67.0132H62.8104V67.5637H63.7787V67.9643H62.3197ZM66.8819 66.0914V67.9643H66.3912V66.0914H65.7337V65.6908H67.5394V66.0914H66.8819ZM70.5215 67.0132H69.9457V67.9643H69.4517V65.6908H69.9457V66.6126H70.5215V65.6908H71.0154V67.9643H70.5215V67.0132ZM73.1111 67.9643V65.6908H74.57V66.0914H73.6017V66.6126H74.5373V67.0132H73.6017V67.5637H74.57V67.9643H73.1111ZM77.1791 67.9643H76.695V65.6908H77.5782C77.6895 65.6908 77.7887 65.7082 77.8759 65.7429C77.9631 65.7755 78.0362 65.8233 78.0951 65.8862C78.1562 65.9492 78.2019 66.0252 78.2325 66.1142C78.263 66.2033 78.2783 66.3032 78.2783 66.4139C78.2783 66.5746 78.2434 66.7125 78.1736 66.8276C78.1038 66.9427 78.0046 67.0186 77.8759 67.0556L78.3241 67.9643H77.7876L77.4048 67.1207H77.1791V67.9643ZM77.4605 66.7429C77.576 66.7429 77.6556 66.7212 77.6993 66.6777C77.7451 66.6343 77.768 66.5626 77.768 66.4628V66.365C77.768 66.2652 77.7451 66.1935 77.6993 66.1501C77.6556 66.1066 77.576 66.0849 77.4605 66.0849H77.1791V66.7429H77.4605Z" fill="#EA5A47"/>
<path d="M1.55056 63.4086C1.09259 63.4086 0.752378 63.2555 0.529933 62.9494C0.310759 62.6399 0.201172 62.2051 0.201172 61.6449C0.201172 61.0846 0.310759 60.6514 0.529933 60.3453C0.752378 60.0358 1.09259 59.8811 1.55056 59.8811C1.72721 59.8811 1.8826 59.9056 2.01672 59.9544C2.15411 60 2.27188 60.0652 2.37001 60.1499C2.46815 60.2345 2.5483 60.3371 2.61045 60.4576C2.67588 60.5782 2.72658 60.7133 2.76256 60.8632L2.0756 61.0293C2.05597 60.9478 2.03307 60.8729 2.0069 60.8045C1.98073 60.7361 1.94639 60.6775 1.90386 60.6286C1.86461 60.5798 1.8139 60.5423 1.75175 60.5163C1.69286 60.487 1.6209 60.4723 1.53584 60.4723C1.3363 60.4723 1.194 60.5505 1.10895 60.7068C1.02716 60.8599 0.986273 61.0732 0.986273 61.3468V61.9429C0.986273 62.2165 1.02716 62.4315 1.10895 62.5878C1.194 62.7409 1.3363 62.8174 1.53584 62.8174C1.70595 62.8174 1.82862 62.7653 1.90386 62.6611C1.98237 62.5569 2.03962 62.4233 2.0756 62.2605L2.76256 62.4266C2.72658 62.5764 2.67588 62.7116 2.61045 62.8321C2.5483 62.9526 2.46815 63.0569 2.37001 63.1448C2.27188 63.2295 2.15411 63.2946 2.01672 63.3402C1.8826 63.3858 1.72721 63.4086 1.55056 63.4086ZM5.64098 63.4086C5.18301 63.4086 4.84443 63.2539 4.62526 62.9445C4.40936 62.635 4.3014 62.2019 4.3014 61.6449C4.3014 61.0879 4.40936 60.6547 4.62526 60.3453C4.84443 60.0358 5.18301 59.8811 5.64098 59.8811C6.09896 59.8811 6.4359 60.0358 6.6518 60.3453C6.87097 60.6547 6.98056 61.0879 6.98056 61.6449C6.98056 62.2019 6.87097 62.635 6.6518 62.9445C6.4359 63.2539 6.09896 63.4086 5.64098 63.4086ZM5.64098 62.8174C5.85034 62.8174 5.99428 62.7409 6.07279 62.5878C6.15457 62.4315 6.19546 62.2149 6.19546 61.938V61.3468C6.19546 61.0732 6.15457 60.8599 6.07279 60.7068C5.99428 60.5505 5.85034 60.4723 5.64098 60.4723C5.43162 60.4723 5.28605 60.5505 5.20427 60.7068C5.12576 60.8599 5.08651 61.0732 5.08651 61.3468V61.9429C5.08651 62.2165 5.12576 62.4315 5.20427 62.5878C5.28605 62.7409 5.43162 62.8174 5.64098 62.8174ZM10.4527 61.8305L10.492 60.8778H10.4478L9.80993 62.6318L9.17203 60.8778H9.12787L9.16712 61.8305V63.35H8.52923V59.9398H9.39775L9.81974 61.0879H9.859L10.281 59.9398H11.0906V63.35H10.4527V61.8305ZM14.6217 61.8305L14.6609 60.8778H14.6168L13.9789 62.6318L13.341 60.8778H13.2968L13.3361 61.8305V63.35H12.6982V59.9398H13.5667L13.9887 61.0879H14.028L14.4499 59.9398H15.2596V63.35H14.6217V61.8305ZM17.6817 59.9398V62.0992C17.6817 62.2067 17.6849 62.3061 17.6915 62.3973C17.7013 62.4852 17.7209 62.5601 17.7504 62.622C17.7831 62.6839 17.8305 62.7328 17.8927 62.7686C17.9548 62.8012 18.0399 62.8174 18.1478 62.8174C18.2558 62.8174 18.3408 62.8012 18.403 62.7686C18.4651 62.7328 18.5109 62.6839 18.5404 62.622C18.5731 62.5601 18.5927 62.4852 18.5993 62.3973C18.6091 62.3061 18.614 62.2067 18.614 62.0992V59.9398H19.35V62.0015C19.35 62.236 19.3337 62.4413 19.3009 62.6171C19.2715 62.793 19.2126 62.9396 19.1243 63.0568C19.036 63.1741 18.9133 63.262 18.7563 63.3207C18.5993 63.3793 18.3964 63.4086 18.1478 63.4086C17.8992 63.4086 17.6964 63.3793 17.5394 63.3207C17.3823 63.262 17.2597 63.1741 17.1714 63.0568C17.083 62.9396 17.0225 62.793 16.9898 62.6171C16.9604 62.4413 16.9456 62.236 16.9456 62.0015V59.9398H17.6817ZM21.8261 61.083H21.7721V63.35H21.144V59.9398H22.0273L22.8075 62.2067H22.8614V59.9398H23.4895V63.35H22.6063L21.8261 61.083ZM25.3817 63.35V62.8077H26.1177V60.4821H25.3817V59.9398H27.5898V60.4821H26.8537V62.8077H27.5898V63.35H25.3817ZM31.0227 60.5407V63.35H30.2866V60.5407H29.3004V59.9398H32.009V60.5407H31.0227ZM34.4556 63.35V62.1432L33.3712 59.9398H34.1906L34.5537 60.7312L34.8187 61.4006H34.8579L35.1229 60.7312L35.486 59.9398H36.276L35.1916 62.1432V63.35H34.4556ZM43.1074 63.4086C42.8195 63.4086 42.5692 63.3614 42.3566 63.2669C42.144 63.1725 41.9722 63.0438 41.8414 62.881L42.2683 62.4119C42.3926 62.5487 42.5284 62.6497 42.6756 62.7149C42.826 62.78 42.9781 62.8126 43.1319 62.8126C43.3085 62.8126 43.4427 62.7735 43.5343 62.6953C43.6259 62.6171 43.6717 62.5048 43.6717 62.3582C43.6717 62.2377 43.6357 62.1465 43.5637 62.0846C43.495 62.0227 43.3772 61.9787 43.2104 61.9527L42.8522 61.894C42.5447 61.8419 42.3223 61.7296 42.1849 61.5569C42.0475 61.381 41.9788 61.1677 41.9788 60.9169C41.9788 60.5879 42.0867 60.3339 42.3026 60.1547C42.5185 59.9723 42.8211 59.8811 43.2104 59.8811C43.4754 59.8811 43.706 59.9218 43.9023 60.0033C44.0986 60.0847 44.2572 60.1954 44.3782 60.3355L43.9612 60.7996C43.8696 60.6987 43.7616 60.6205 43.6373 60.5651C43.513 60.5065 43.3723 60.4772 43.2153 60.4772C42.8849 60.4772 42.7197 60.6124 42.7197 60.8827C42.7197 61 42.7557 61.0879 42.8277 61.1465C42.9029 61.2052 43.0239 61.2491 43.1908 61.2784L43.549 61.342C43.827 61.3908 44.0413 61.495 44.1918 61.6546C44.3423 61.8142 44.4175 62.0292 44.4175 62.2996C44.4175 62.4592 44.3897 62.6074 44.3341 62.7442C44.2785 62.8777 44.1951 62.995 44.0838 63.0959C43.9726 63.1936 43.8352 63.2702 43.6717 63.3256C43.5114 63.3809 43.3233 63.4086 43.1074 63.4086ZM47.4088 63.4086C46.9508 63.4086 46.6106 63.2555 46.3882 62.9494C46.169 62.6399 46.0594 62.2051 46.0594 61.6449C46.0594 61.0846 46.169 60.6514 46.3882 60.3453C46.6106 60.0358 46.9508 59.8811 47.4088 59.8811C47.5854 59.8811 47.7408 59.9056 47.8749 59.9544C48.0123 60 48.1301 60.0652 48.2282 60.1499C48.3264 60.2345 48.4065 60.3371 48.4687 60.4576C48.5341 60.5782 48.5848 60.7133 48.6208 60.8632L47.9338 61.0293C47.9142 60.9478 47.8913 60.8729 47.8651 60.8045C47.839 60.7361 47.8046 60.6775 47.7621 60.6286C47.7228 60.5798 47.6721 60.5423 47.61 60.5163C47.5511 60.487 47.4791 60.4723 47.3941 60.4723C47.1945 60.4723 47.0522 60.5505 46.9672 60.7068C46.8854 60.8599 46.8445 61.0732 46.8445 61.3468V61.9429C46.8445 62.2165 46.8854 62.4315 46.9672 62.5878C47.0522 62.7409 47.1945 62.8174 47.3941 62.8174C47.5642 62.8174 47.6868 62.7653 47.7621 62.6611C47.8406 62.5569 47.8978 62.4233 47.9338 62.2605L48.6208 62.4266C48.5848 62.5764 48.5341 62.7116 48.4687 62.8321C48.4065 62.9526 48.3264 63.0569 48.2282 63.1448C48.1301 63.2295 48.0123 63.2946 47.8749 63.3402C47.7408 63.3858 47.5854 63.4086 47.4088 63.4086ZM50.3952 63.35V62.8077H51.1312V60.4821H50.3952V59.9398H52.6033V60.4821H51.8672V62.8077H52.6033V63.35H50.3952ZM54.5887 63.35V59.9398H56.7771V60.5407H55.3247V61.3224H56.7281V61.9234H55.3247V62.749H56.7771V63.35H54.5887ZM59.3464 61.083H59.2924V63.35H58.6644V59.9398H59.5476L60.3278 62.2067H60.3818V59.9398H61.0099V63.35H60.1266L59.3464 61.083ZM64.0846 63.4086C63.6266 63.4086 63.2864 63.2555 63.0639 62.9494C62.8448 62.6399 62.7352 62.2051 62.7352 61.6449C62.7352 61.0846 62.8448 60.6514 63.0639 60.3453C63.2864 60.0358 63.6266 59.8811 64.0846 59.8811C64.2612 59.8811 64.4166 59.9056 64.5507 59.9544C64.6881 60 64.8059 60.0652 64.904 60.1499C65.0021 60.2345 65.0823 60.3371 65.1445 60.4576C65.2099 60.5782 65.2606 60.7133 65.2966 60.8632L64.6096 61.0293C64.59 60.9478 64.5671 60.8729 64.5409 60.8045C64.5147 60.7361 64.4804 60.6775 64.4379 60.6286C64.3986 60.5798 64.3479 60.5423 64.2857 60.5163C64.2269 60.487 64.1549 60.4723 64.0698 60.4723C63.8703 60.4723 63.728 60.5505 63.6429 60.7068C63.5612 60.8599 63.5203 61.0732 63.5203 61.3468V61.9429C63.5203 62.2165 63.5612 62.4315 63.6429 62.5878C63.728 62.7409 63.8703 62.8174 64.0698 62.8174C64.2399 62.8174 64.3626 62.7653 64.4379 62.6611C64.5164 62.5569 64.5736 62.4233 64.6096 62.2605L65.2966 62.4266C65.2606 62.5764 65.2099 62.7116 65.1445 62.8321C65.0823 62.9526 65.0021 63.0569 64.904 63.1448C64.8059 63.2295 64.6881 63.2946 64.5507 63.3402C64.4166 63.3858 64.2612 63.4086 64.0846 63.4086ZM67.0955 63.35V59.9398H69.284V60.5407H67.8315V61.3224H69.2349V61.9234H67.8315V62.749H69.284V63.35H67.0955ZM77.1557 61.8305L77.1949 60.8778H77.1508L76.5129 62.6318L75.875 60.8778H75.8308L75.8701 61.8305V63.35H75.2322V59.9398H76.1007L76.5227 61.0879H76.5619L76.9839 59.9398H77.7936V63.35H77.1557V61.8305ZM80.2157 59.9398V62.0992C80.2157 62.2067 80.2189 62.3061 80.2255 62.3973C80.2353 62.4852 80.2549 62.5601 80.2844 62.622C80.3171 62.6839 80.3645 62.7328 80.4267 62.7686C80.4888 62.8012 80.5739 62.8174 80.6818 62.8174C80.7898 62.8174 80.8748 62.8012 80.937 62.7686C80.9991 62.7328 81.0449 62.6839 81.0744 62.622C81.1071 62.5601 81.1267 62.4852 81.1333 62.3973C81.1431 62.3061 81.148 62.2067 81.148 62.0992V59.9398H81.884V62.0015C81.884 62.236 81.8677 62.4413 81.8349 62.6171C81.8055 62.793 81.7466 62.9396 81.6583 63.0568C81.57 63.1741 81.4473 63.262 81.2903 63.3207C81.1333 63.3793 80.9304 63.4086 80.6818 63.4086C80.4332 63.4086 80.2304 63.3793 80.0734 63.3207C79.9163 63.262 79.7937 63.1741 79.7053 63.0568C79.617 62.9396 79.5565 62.793 79.5238 62.6171C79.4944 62.4413 79.4796 62.236 79.4796 62.0015V59.9398H80.2157ZM84.7968 63.4086C84.5089 63.4086 84.2587 63.3614 84.046 63.2669C83.8334 63.1725 83.6617 63.0438 83.5308 62.881L83.9577 62.4119C84.082 62.5487 84.2178 62.6497 84.365 62.7149C84.5155 62.78 84.6676 62.8126 84.8213 62.8126C84.998 62.8126 85.1321 62.7735 85.2237 62.6953C85.3153 62.6171 85.3611 62.5048 85.3611 62.3582C85.3611 62.2377 85.3251 62.1465 85.2531 62.0846C85.1844 62.0227 85.0667 61.9787 84.8998 61.9527L84.5416 61.894C84.2341 61.8419 84.0117 61.7296 83.8743 61.5569C83.7369 61.381 83.6682 61.1677 83.6682 60.9169C83.6682 60.5879 83.7762 60.3339 83.9921 60.1547C84.208 59.9723 84.5106 59.8811 84.8998 59.8811C85.1648 59.8811 85.3954 59.9218 85.5917 60.0033C85.788 60.0847 85.9466 60.1954 86.0677 60.3355L85.6506 60.7996C85.559 60.6987 85.451 60.6205 85.3267 60.5651C85.2024 60.5065 85.0618 60.4772 84.9047 60.4772C84.5743 60.4772 84.4091 60.6124 84.4091 60.8827C84.4091 61 84.4451 61.0879 84.5171 61.1465C84.5923 61.2052 84.7134 61.2491 84.8802 61.2784L85.2384 61.342C85.5165 61.3908 85.7307 61.495 85.8812 61.6546C86.0317 61.8142 86.1069 62.0292 86.1069 62.2996C86.1069 62.4592 86.0791 62.6074 86.0235 62.7442C85.9679 62.8777 85.8845 62.995 85.7733 63.0959C85.662 63.1936 85.5246 63.2702 85.3611 63.3256C85.2008 63.3809 85.0127 63.4086 84.7968 63.4086ZM87.9402 63.35V59.9398H90.1287V60.5407H88.6762V61.3224H90.0796V61.9234H88.6762V62.749H90.1287V63.35H87.9402ZM92.7225 59.9398V62.0992C92.7225 62.2067 92.7258 62.3061 92.7323 62.3973C92.7421 62.4852 92.7618 62.5601 92.7912 62.622C92.8239 62.6839 92.8713 62.7328 92.9335 62.7686C92.9956 62.8012 93.0807 62.8174 93.1886 62.8174C93.2966 62.8174 93.3817 62.8012 93.4438 62.7686C93.506 62.7328 93.5518 62.6839 93.5812 62.622C93.6139 62.5601 93.6335 62.4852 93.6401 62.3973C93.6499 62.3061 93.6548 62.2067 93.6548 62.0992V59.9398H94.3908V62.0015C94.3908 62.236 94.3745 62.4413 94.3418 62.6171C94.3123 62.793 94.2534 62.9396 94.1651 63.0568C94.0768 63.1741 93.9541 63.262 93.7971 63.3207C93.6401 63.3793 93.4373 63.4086 93.1886 63.4086C92.94 63.4086 92.7372 63.3793 92.5802 63.3207C92.4232 63.262 92.3005 63.1741 92.2122 63.0568C92.1239 62.9396 92.0633 62.793 92.0306 62.6171C92.0012 62.4413 91.9865 62.236 91.9865 62.0015V59.9398H92.7225ZM98.0004 61.8305L98.0396 60.8778H97.9955L97.3576 62.6318L96.7197 60.8778H96.6755L96.7148 61.8305V63.35H96.0769V59.9398H96.9454L97.3674 61.0879H97.4067L97.8286 59.9398H98.6383V63.35H98.0004V61.8305Z" fill="#D5AA13"/>
</svg>
