<svg width="132" height="86" viewBox="0 0 132 86" fill="none" xmlns="http://www.w3.org/2000/svg">
<path d="M93.0706 31.3263C93.0706 46.4131 81.0243 58.6342 66.1758 58.6342C51.3273 58.6342 39.2808 46.4131 39.2808 31.3263C39.2808 16.2395 51.3273 4.01855 66.1758 4.01855C81.0243 4.01855 93.0706 16.2395 93.0706 31.3263Z" fill="#0054A3" stroke="#0054A3" stroke-width="3"/>
<path d="M85.9094 12.3711C89.016 18.2587 89.9114 25.0903 88.4302 31.5977C86.949 38.105 83.1916 43.8453 77.8564 47.7527C72.5206 51.66 65.9692 53.4691 59.4194 52.8432C52.869 52.2177 46.7655 49.1997 42.2417 44.3505C44.0713 47.8123 46.6085 50.837 49.6834 53.2223C52.7585 55.6074 56.3 57.2984 60.0707 58.1813C63.8414 59.0642 67.7548 59.1191 71.548 58.3416C75.3412 57.5645 78.9277 55.9732 82.066 53.6752C85.2044 51.3766 87.8229 48.4238 89.7456 45.0147C91.6683 41.6053 92.8517 37.8185 93.2154 33.9074C93.5792 29.9963 93.1157 26.0513 91.856 22.3369C90.5959 18.6225 88.5683 15.2256 85.9094 12.3711Z" fill="#024380"/>
<path d="M36.0982 40.3153C36.5743 41.6331 37.9022 42.5061 39.773 43.0051C41.6518 43.5061 44.1411 43.6486 47.0578 43.4557C52.8945 43.07 60.5075 41.337 68.5181 38.3546C76.5286 35.3722 83.4392 31.698 88.137 28.162C90.4843 26.395 92.2919 24.6531 93.4052 23.0392C94.5134 21.4325 94.9693 19.8984 94.4945 18.5823C94.1271 17.5662 93.2512 16.8137 92.0172 16.2958C90.8113 15.7895 89.237 15.495 87.3793 15.3966L86.5463 14.2801C90.9586 13.7702 94.7221 13.7842 97.5468 14.3314C100.485 14.9005 102.32 16.0273 102.904 17.6453C103.415 19.059 102.96 20.8139 101.578 22.818C100.201 24.8149 97.9372 27.0052 94.9498 29.254C88.9776 33.7492 80.1622 38.4405 69.9189 42.254C59.6751 46.0674 49.9618 48.2743 42.5434 48.7644C38.8323 49.0097 35.7115 48.8241 33.3905 48.2052C31.0616 47.5841 29.5999 46.5454 29.0899 45.1335C28.4953 43.4867 29.2119 41.3788 31.1593 38.9693C33.0314 36.6529 35.9899 34.1243 39.7949 31.5755L39.8578 32.8815C38.3807 34.2404 37.2705 35.5621 36.6104 36.7966C35.9372 38.056 35.7161 39.2565 36.0982 40.3153Z" fill="white"/>
<path d="M102.904 17.6453C102.32 16.0273 100.485 14.9005 97.5468 14.3314C94.7221 13.7842 90.9586 13.7702 86.5463 14.2801L87.3793 15.3966C89.237 15.495 90.8113 15.7895 92.0172 16.2958C93.2512 16.8137 94.1271 17.5662 94.4945 18.5823C94.9693 19.8984 94.5134 21.4325 93.4052 23.0392C92.2919 24.6531 90.4843 26.395 88.137 28.162C83.4392 31.698 76.5286 35.3722 68.5181 38.3546C60.5075 41.337 52.8945 43.07 47.0578 43.4557C44.1411 43.6486 41.6518 43.5061 39.773 43.0051C37.9022 42.5061 36.5743 41.6331 36.0982 40.3153C35.7161 39.2565 35.9372 38.056 36.6104 36.7967C37.2705 35.5621 38.3807 34.2404 39.8578 32.8815L39.7949 31.5755C35.9899 34.1243 33.0314 36.6529 31.1593 38.9693C29.2119 41.3788 28.4953 43.4867 29.0899 45.1335C29.5999 46.5454 31.0616 47.5841 33.3905 48.2052C35.7115 48.8241 38.8323 49.0097 42.5434 48.7644C49.9618 48.2743 59.6751 46.0674 69.9189 42.254C80.1622 38.4405 88.9776 33.7492 94.9498 29.254C97.9372 27.0052 100.201 24.8149 101.578 22.818C102.96 20.8139 103.415 19.059 102.904 17.6453ZM102.904 17.6453L103.156 17.5554" stroke="#0054A3" stroke-width="3"/>
<path d="M90.2268 59.5974C91.3585 59.5974 92.2753 58.685 92.2753 57.5599C92.2753 56.4343 91.3585 55.5219 90.2268 55.5219C89.0956 55.5219 88.1782 56.4343 88.1782 57.5599C88.1782 58.685 89.0956 59.5974 90.2268 59.5974Z" fill="white" stroke="black" stroke-width="0.8"/>
<path d="M94.7695 27.4361C94.7695 27.659 94.6432 27.8942 94.371 28.0875C94.0993 28.2803 93.7059 28.4107 93.2551 28.4107C92.8044 28.4107 92.4114 28.2803 92.1398 28.0875C91.8676 27.8942 91.7412 27.659 91.7412 27.4361C91.7412 27.2132 91.8676 26.9781 92.1398 26.7847C92.4114 26.592 92.8044 26.4615 93.2551 26.4615C93.7059 26.4615 94.0993 26.592 94.371 26.7847C94.6432 26.9781 94.7695 27.2132 94.7695 27.4361Z" fill="white" stroke="black" stroke-width="0.6"/>
<path d="M35.9841 13.8805C37.4598 13.8805 38.6562 12.6905 38.6562 11.2225C38.6562 9.75458 37.4598 8.56458 35.9841 8.56458C34.5084 8.56458 33.312 9.75458 33.312 11.2225C33.312 12.6905 34.5084 13.8805 35.9841 13.8805Z" fill="white" stroke="black" stroke-width="0.8"/>
<path d="M33.314 11.5541L34.7391 10.3137" stroke="black" stroke-width="0.4"/>
<path d="M33.8481 12.4401L35.2732 11.1997" stroke="black" stroke-width="0.4"/>
<path d="M34.561 13.1488L35.9862 11.9084" stroke="black" stroke-width="0.4"/>
<path d="M29.7349 83.3422V80.3734H31.6416V80.8965H30.3761V81.5774H31.5989V82.1H30.3761V82.819H31.6416V83.3422H29.7349ZM36.6208 83.3422H35.8897L35.5818 82.7509L35.3724 82.2832H35.3339L35.1202 82.7509L34.8038 83.3422H34.1326L34.9705 81.8069L34.1881 80.3734H34.9192L35.1629 80.8456L35.3809 81.3219H35.4151L35.6375 80.8456L35.8939 80.3734H36.5652L35.7828 81.8155L36.6208 83.3422ZM39.1201 83.3422V80.3734H40.2744C40.4198 80.3734 40.5494 80.3963 40.6634 80.4416C40.7774 80.4843 40.8729 80.5464 40.9499 80.6289C41.0297 80.7108 41.0895 80.81 41.1294 80.9265C41.1693 81.0426 41.1893 81.1733 41.1893 81.3179C41.1893 81.4624 41.1693 81.5927 41.1294 81.7092C41.0895 81.8252 41.0297 81.9244 40.9499 82.0069C40.8729 82.0888 40.7774 82.1529 40.6634 82.1982C40.5494 82.2405 40.4198 82.2618 40.2744 82.2618H39.7656V83.3422H39.1201ZM39.7656 81.7474H40.1119C40.263 81.7474 40.367 81.7189 40.424 81.6624C40.4839 81.6054 40.5138 81.5117 40.5138 81.3815V81.2538C40.5138 81.1235 40.4839 81.0298 40.424 80.9734C40.367 80.9164 40.263 80.8884 40.1119 80.8884H39.7656V81.7474ZM43.8897 83.3422V80.3734H44.5352V82.819H45.8178V83.3422H43.8897ZM49.4802 83.3931C49.0812 83.3931 48.7861 83.2582 48.5952 82.989C48.4071 82.7198 48.313 82.3427 48.313 81.8578C48.313 81.3728 48.4071 80.9957 48.5952 80.7266C48.7861 80.4574 49.0812 80.3225 49.4802 80.3225C49.8792 80.3225 50.1728 80.4574 50.3609 80.7266C50.5518 80.9957 50.6473 81.3728 50.6473 81.8578C50.6473 82.3427 50.5518 82.7198 50.3609 82.989C50.1728 83.2582 49.8792 83.3931 49.4802 83.3931ZM49.4802 82.8786C49.6626 82.8786 49.788 82.8119 49.8564 82.6786C49.9276 82.5427 49.9633 82.3539 49.9633 82.1132V81.5983C49.9633 81.3601 49.9276 81.1744 49.8564 81.0415C49.788 80.9052 49.6626 80.837 49.4802 80.837C49.2978 80.837 49.1709 80.9052 49.0997 81.0415C49.0313 81.1744 48.997 81.3601 48.997 81.5983V82.1173C48.997 82.3555 49.0313 82.5427 49.0997 82.6786C49.1709 82.8119 49.2978 82.8786 49.4802 82.8786ZM53.8561 83.3422H53.2238V80.3734H54.378C54.5233 80.3734 54.6527 80.3963 54.7668 80.4416C54.8809 80.4843 54.9766 80.5464 55.0533 80.6289C55.1331 80.7108 55.193 80.81 55.2329 80.9265C55.2728 81.0426 55.2928 81.1733 55.2928 81.3179C55.2928 81.5275 55.2472 81.7077 55.1562 81.8578C55.0646 82.0079 54.9351 82.1071 54.7668 82.1555L55.3526 83.3422H54.6517L54.1513 82.2405H53.8561V83.3422ZM54.224 81.7474C54.3749 81.7474 54.4793 81.7189 54.5361 81.6624C54.5959 81.6054 54.6256 81.5117 54.6256 81.3815V81.2538C54.6256 81.1235 54.5959 81.0298 54.5361 80.9734C54.4793 80.9164 54.3749 80.8884 54.224 80.8884H53.8561V81.7474H54.224ZM57.942 83.3422V80.3734H59.8488V80.8965H58.5831V81.5774H59.8058V82.1H58.5831V82.819H59.8488V83.3422H57.942ZM68.6053 80.8965V83.3422H67.9643V80.8965H67.1047V80.3734H69.4649V80.8965H68.6053ZM72.9859 83.3931C72.5868 83.3931 72.2921 83.2582 72.1008 82.989C71.913 82.7198 71.8189 82.3427 71.8189 81.8578C71.8189 81.3728 71.913 80.9957 72.1008 80.7266C72.2921 80.4574 72.5868 80.3225 72.9859 80.3225C73.385 80.3225 73.6786 80.4574 73.8669 80.7266C74.0578 80.9957 74.1529 81.3728 74.1529 81.8578C74.1529 82.3427 74.0578 82.7198 73.8669 82.989C73.6786 83.2582 73.385 83.3931 72.9859 83.3931ZM72.9859 82.8786C73.1685 82.8786 73.2939 82.8119 73.3624 82.6786C73.4336 82.5427 73.4689 82.3539 73.4689 82.1132V81.5983C73.4689 81.3601 73.4336 81.1744 73.3624 81.0415C73.2939 80.9052 73.1685 80.837 72.9859 80.837C72.8038 80.837 72.6769 80.9052 72.6052 81.0415C72.5372 81.1744 72.5029 81.3601 72.5029 81.5983V82.1173C72.5029 82.3555 72.5372 82.5427 72.6052 82.6786C72.6769 82.8119 72.8038 82.8786 72.9859 82.8786ZM78.1615 82.9208H78.1231C78.0976 82.9834 78.0664 83.043 78.029 83.0994C77.9922 83.1564 77.9466 83.2073 77.8924 83.2526C77.8382 83.2954 77.7737 83.3295 77.7 83.3549C77.6284 83.3803 77.5476 83.3931 77.456 83.3931C77.3107 83.3931 77.1812 83.359 77.0671 83.2908C76.9561 83.2231 76.862 83.1239 76.7847 82.9931C76.708 82.8628 76.6497 82.704 76.6097 82.5168C76.5724 82.33 76.554 82.1188 76.554 81.8832C76.554 81.3789 76.6466 80.9932 76.8318 80.7266C77.017 80.4574 77.3035 80.3225 77.6913 80.3225C77.8453 80.3225 77.9804 80.3439 78.0976 80.3866C78.2142 80.4263 78.314 80.4843 78.3969 80.5607C78.4823 80.6345 78.5519 80.724 78.6061 80.8288C78.6604 80.9337 78.7033 81.0497 78.7345 81.1774L78.1359 81.3219C78.1191 81.2599 78.0991 81.2003 78.0761 81.1433C78.0561 81.0838 78.029 81.0314 77.9947 80.9861C77.9604 80.9408 77.918 80.9052 77.8668 80.8797C77.8151 80.8512 77.7527 80.837 77.6785 80.837C77.5158 80.837 77.4007 80.9036 77.3322 81.037C77.2667 81.1703 77.2339 81.3576 77.2339 81.5983V82.0832C77.2339 82.3244 77.2692 82.5168 77.3409 82.6618C77.4151 82.8063 77.5445 82.8786 77.7297 82.8786C77.875 82.8786 77.9835 82.8358 78.0546 82.7509C78.1257 82.6659 78.1615 82.5565 78.1615 82.4237V82.2064H77.653V81.756H78.7345V83.3422H78.1615V82.9208ZM81.4477 83.3422V80.3734H83.3545V80.8965H82.0888V81.5774H83.3116V82.1H82.0888V82.819H83.3545V83.3422H81.4477ZM87.4102 80.8965V83.3422H86.7686V80.8965H85.9096V80.3734H88.2692V80.8965H87.4102ZM92.1668 82.1H91.4142V83.3422H90.7685V80.3734H91.4142V81.5774H92.1668V80.3734H92.8125V83.3422H92.1668V82.1ZM95.5512 83.3422V80.3734H97.4581V80.8965H96.1923V81.5774H97.4151V82.1H96.1923V82.819H97.4581V83.3422H95.5512ZM100.868 83.3422H100.235V80.3734H101.389C101.535 80.3734 101.665 80.3963 101.779 80.4416C101.892 80.4843 101.988 80.5464 102.065 80.6289C102.145 80.7108 102.204 80.81 102.244 80.9265C102.284 81.0426 102.304 81.1733 102.304 81.3179C102.304 81.5275 102.259 81.7077 102.168 81.8578C102.077 82.0079 101.947 82.1071 101.779 82.1555L102.364 83.3422H101.663L101.163 82.2405H100.868V83.3422ZM101.235 81.7474C101.387 81.7474 101.491 81.7189 101.548 81.6624C101.607 81.6054 101.638 81.5117 101.638 81.3815V81.2538C101.638 81.1235 101.607 81.0298 101.548 80.9734C101.491 80.9164 101.387 80.8884 101.235 80.8884H100.868V81.7474H101.235Z" fill="#0054A3"/>
<path d="M2.02626 77.3939C1.42771 77.3939 0.983085 77.1939 0.692362 76.7945C0.405918 76.3904 0.262695 75.8225 0.262695 75.0913C0.262695 74.3595 0.405918 73.7941 0.692362 73.3942C0.983085 72.9901 1.42771 72.7881 2.02626 72.7881C2.25713 72.7881 2.4602 72.8201 2.63549 72.8838C2.81505 72.9433 2.96896 73.0283 3.09722 73.1392C3.22548 73.2496 3.33022 73.3835 3.41145 73.5407C3.49696 73.6985 3.56323 73.8745 3.61026 74.0705L2.71244 74.2872C2.68679 74.1809 2.65687 74.0832 2.62266 73.9936C2.58846 73.9046 2.54357 73.8277 2.48799 73.7641C2.43669 73.7005 2.37042 73.6517 2.28919 73.6176C2.21223 73.5794 2.11818 73.56 2.00702 73.56C1.74622 73.56 1.56025 73.6623 1.44909 73.8664C1.34221 74.0659 1.28877 74.3447 1.28877 74.702V75.48C1.28877 75.8373 1.34221 76.1182 1.44909 76.3222C1.56025 76.5222 1.74622 76.622 2.00702 76.622C2.22933 76.622 2.38966 76.5538 2.48799 76.4179C2.5906 76.282 2.66541 76.1075 2.71244 75.8948L3.61026 76.1115C3.56323 76.3075 3.49696 76.4835 3.41145 76.6413C3.33022 76.7985 3.22548 76.9344 3.09722 77.0494C2.96896 77.1598 2.81505 77.2448 2.63549 77.3044C2.4602 77.3639 2.25713 77.3939 2.02626 77.3939ZM7.37217 77.3939C6.77361 77.3939 6.3311 77.1919 6.04464 76.7878C5.76248 76.3838 5.62143 75.8184 5.62143 75.0913C5.62143 74.3636 5.76248 73.7982 6.04464 73.3942C6.3311 72.9901 6.77361 72.7881 7.37217 72.7881C7.97067 72.7881 8.41103 72.9901 8.69324 73.3942C8.97965 73.7982 9.1229 74.3636 9.1229 75.0913C9.1229 75.8184 8.97965 76.3838 8.69324 76.7878C8.41103 77.1919 7.97067 77.3939 7.37217 77.3939ZM7.37217 76.622C7.64578 76.622 7.83386 76.5222 7.93649 76.3222C8.04337 76.1182 8.09684 75.8352 8.09684 75.4739V74.702C8.09684 74.3447 8.04337 74.0659 7.93649 73.8664C7.83386 73.6623 7.64578 73.56 7.37217 73.56C7.09855 73.56 6.90827 73.6623 6.80139 73.8664C6.69881 74.0659 6.6475 74.3447 6.6475 74.702V75.48C6.6475 75.8373 6.69881 76.1182 6.80139 76.3222C6.90827 76.5222 7.09855 76.622 7.37217 76.622ZM13.6608 75.3335L13.7121 74.0893H13.6543L12.8206 76.3797L11.987 74.0893H11.9293L11.9806 75.3335V77.3171H11.1469V72.8649H12.282L12.8335 74.3636H12.8848L13.4363 72.8649H14.4944V77.3171H13.6608V75.3335ZM19.1093 75.3335L19.1606 74.0893H19.1029L18.2692 76.3797L17.4355 74.0893H17.3778L17.4291 75.3335V77.3171H16.5954V72.8649H17.7305L18.282 74.3636H18.3333L18.8849 72.8649H19.943V77.3171H19.1093V75.3335ZM23.1085 72.8649V75.6841C23.1085 75.8245 23.1128 75.9543 23.1213 76.0734C23.1341 76.1884 23.1598 76.2861 23.1982 76.367C23.241 76.4474 23.303 76.5115 23.3842 76.5583C23.4655 76.6006 23.5766 76.622 23.7177 76.622C23.8588 76.622 23.97 76.6006 24.0512 76.5583C24.1324 76.5115 24.1923 76.4474 24.2308 76.367C24.2735 76.2861 24.2992 76.1884 24.3077 76.0734C24.3206 75.9543 24.327 75.8245 24.327 75.6841V72.8649H25.2889V75.5569C25.2889 75.8627 25.2675 76.1309 25.2248 76.3604C25.1863 76.5899 25.1093 76.7812 24.9939 76.9344C24.8785 77.0876 24.7181 77.2026 24.5129 77.2789C24.3077 77.3558 24.0426 77.3939 23.7177 77.3939C23.3928 77.3939 23.1277 77.3558 22.9225 77.2789C22.7173 77.2026 22.557 77.0876 22.4415 76.9344C22.3261 76.7812 22.247 76.5899 22.2043 76.3604C22.1658 76.1309 22.1465 75.8627 22.1465 75.5569V72.8649H23.1085ZM28.525 74.3575H28.4544V77.3171H27.6336V72.8649H28.7879L29.8076 75.8245H29.8781V72.8649H30.6989V77.3171H29.5446L28.525 74.3575ZM33.1718 77.3171V76.6092H34.1338V73.5728H33.1718V72.8649H36.0577V73.5728H35.0957V76.6092H36.0577V77.3171H33.1718ZM40.5442 73.6491V77.3171H39.5823V73.6491H38.2933V72.8649H41.8333V73.6491H40.5442ZM45.0308 77.3171V75.7416L43.6136 72.8649H44.6845L45.1591 73.8979L45.5054 74.7722H45.5567L45.903 73.8979L46.3775 72.8649H47.41L45.9928 75.7416V77.3171H45.0308ZM56.3382 77.3939C55.9621 77.3939 55.6347 77.3323 55.3569 77.2087C55.0791 77.0855 54.8545 76.9176 54.6836 76.7049L55.2412 76.0927C55.4039 76.2713 55.5815 76.4031 55.7738 76.4881C55.9703 76.5731 56.1693 76.6159 56.3704 76.6159C56.6012 76.6159 56.7761 76.5644 56.8959 76.4627C57.0156 76.3604 57.0754 76.2138 57.0754 76.0225C57.0754 75.8653 57.0284 75.7462 56.9347 75.6653C56.8447 75.5844 56.6907 75.5269 56.4727 75.4928L56.0046 75.4164C55.603 75.3482 55.3119 75.2017 55.1323 74.9763C54.9527 74.7468 54.8632 74.4679 54.8632 74.1407C54.8632 73.7112 55.0044 73.3794 55.2863 73.1453C55.5687 72.9072 55.9642 72.7881 56.4727 72.7881C56.8191 72.7881 57.1205 72.8415 57.3768 72.9479C57.6336 73.0537 57.8408 73.1987 57.9989 73.3814L57.454 73.9875C57.3343 73.8557 57.1931 73.7534 57.0309 73.6812C56.8682 73.6048 56.6845 73.5662 56.4794 73.5662C56.0476 73.5662 55.8317 73.7427 55.8317 74.0959C55.8317 74.2491 55.8787 74.3636 55.9724 74.4404C56.0711 74.5167 56.2292 74.5742 56.4472 74.6124L56.9153 74.6954C57.2785 74.7595 57.5589 74.8953 57.7554 75.104C57.9519 75.3121 58.0506 75.593 58.0506 75.9457C58.0506 76.1543 58.0143 76.3477 57.9411 76.5263C57.8685 76.7008 57.7595 76.854 57.6142 76.9858C57.4689 77.113 57.2893 77.2133 57.0754 77.2855C56.8662 77.3578 56.6201 77.3939 56.3382 77.3939ZM61.9599 77.3939C61.3613 77.3939 60.9167 77.1939 60.6261 76.7945C60.3396 76.3904 60.1964 75.8225 60.1964 75.0913C60.1964 74.3595 60.3396 73.7941 60.6261 73.3942C60.9167 72.9901 61.3613 72.7881 61.9599 72.7881C62.1907 72.7881 62.3938 72.8201 62.5688 72.8838C62.7484 72.9433 62.9024 73.0283 63.0308 73.1392C63.1592 73.2496 63.2636 73.3835 63.3449 73.5407C63.4304 73.6985 63.4969 73.8745 63.5439 74.0705L62.646 74.2872C62.6205 74.1809 62.5903 74.0832 62.556 73.9936C62.5222 73.9046 62.4772 73.8277 62.4214 73.7641C62.3703 73.7005 62.3038 73.6517 62.2229 73.6176C62.1457 73.5794 62.0515 73.56 61.9405 73.56C61.6796 73.56 61.4938 73.6623 61.3828 73.8664C61.2759 74.0659 61.2222 74.3447 61.2222 74.702V75.48C61.2222 75.8373 61.2759 76.1182 61.3828 76.3222C61.4938 76.5222 61.6796 76.622 61.9405 76.622C62.1631 76.622 62.3232 76.5538 62.4214 76.4179C62.5243 76.282 62.599 76.1075 62.646 75.8948L63.5439 76.1115C63.4969 76.3075 63.4304 76.4835 63.3449 76.6413C63.2636 76.7985 63.1592 76.9344 63.0308 77.0494C62.9024 77.1598 62.7484 77.2448 62.5688 77.3044C62.3938 77.3639 62.1907 77.3939 61.9599 77.3939ZM65.8626 77.3171V76.6092H66.8245V73.5728H65.8626V72.8649H68.7487V73.5728H67.7869V76.6092H68.7487V77.3171H65.8626ZM71.3432 77.3171V72.8649H74.2037V73.6491H72.3051V74.6699H74.1392V75.4546H72.3051V76.5329H74.2037V77.3171H71.3432ZM77.5615 74.3575H77.4909V77.3171H76.6703V72.8649H77.8245L78.8442 75.8245H78.9148V72.8649H79.7354V77.3171H78.5812L77.5615 74.3575ZM83.7538 77.3939C83.1552 77.3939 82.7105 77.1939 82.4199 76.7945C82.1334 76.3904 81.9902 75.8225 81.9902 75.0913C81.9902 74.3595 82.1334 73.7941 82.4199 73.3942C82.7105 72.9901 83.1552 72.7881 83.7538 72.7881C83.9845 72.7881 84.1876 72.8201 84.3631 72.8838C84.5427 72.9433 84.6967 73.0283 84.8246 73.1392C84.953 73.2496 85.0579 73.3835 85.1392 73.5407C85.2247 73.6985 85.2907 73.8745 85.3378 74.0705L84.4398 74.2872C84.4143 74.1809 84.3846 74.0832 84.3503 73.9936C84.316 73.9046 84.271 73.8277 84.2158 73.7641C84.1641 73.7005 84.0981 73.6517 84.0167 73.6176C83.94 73.5794 83.8458 73.56 83.7348 73.56C83.4739 73.56 83.2877 73.6623 83.1766 73.8664C83.0697 74.0659 83.0165 74.3447 83.0165 74.702V75.48C83.0165 75.8373 83.0697 76.1182 83.1766 76.3222C83.2877 76.5222 83.4739 76.622 83.7348 76.622C83.9569 76.622 84.117 76.5538 84.2158 76.4179C84.3181 76.282 84.3928 76.1075 84.4398 75.8948L85.3378 76.1115C85.2907 76.3075 85.2247 76.4835 85.1392 76.6413C85.0579 76.7985 84.953 76.9344 84.8246 77.0494C84.6967 77.1598 84.5427 77.2448 84.3631 77.3044C84.1876 77.3639 83.9845 77.3939 83.7538 77.3939ZM87.6887 77.3171V72.8649H90.5492V73.6491H88.6511V74.6699H90.4847V75.4546H88.6511V76.5329H90.5492V77.3171H87.6887ZM100.837 75.3335L100.888 74.0893H100.83L99.9969 76.3797L99.163 74.0893H99.1051L99.1568 75.3335V77.3171H98.3229V72.8649H99.4582L100.01 74.3636H100.061L100.612 72.8649H101.67V77.3171H100.837V75.3335ZM104.836 72.8649V75.6841C104.836 75.8245 104.84 75.9543 104.849 76.0734C104.861 76.1884 104.888 76.2861 104.926 76.367C104.968 76.4474 105.031 76.5115 105.112 76.5583C105.193 76.6006 105.304 76.622 105.445 76.622C105.586 76.622 105.697 76.6006 105.779 76.5583C105.86 76.5115 105.92 76.4474 105.958 76.367C106.001 76.2861 106.027 76.1884 106.035 76.0734C106.048 75.9543 106.055 75.8245 106.055 75.6841V72.8649H107.016V75.5569C107.016 75.8627 106.995 76.1309 106.952 76.3604C106.914 76.5899 106.837 76.7812 106.721 76.9344C106.606 77.0876 106.445 77.2026 106.24 77.2789C106.035 77.3558 105.77 77.3939 105.445 77.3939C105.12 77.3939 104.855 77.3558 104.65 77.2789C104.445 77.2026 104.284 77.0876 104.169 76.9344C104.054 76.7812 103.975 76.5899 103.932 76.3604C103.893 76.1309 103.874 75.8627 103.874 75.5569V72.8649H104.836ZM110.823 77.3939C110.447 77.3939 110.12 77.3323 109.842 77.2087C109.564 77.0855 109.34 76.9176 109.169 76.7049L109.727 76.0927C109.889 76.2713 110.067 76.4031 110.259 76.4881C110.456 76.5731 110.655 76.6159 110.855 76.6159C111.086 76.6159 111.261 76.5644 111.381 76.4627C111.501 76.3604 111.561 76.2138 111.561 76.0225C111.561 75.8653 111.514 75.7462 111.42 75.6653C111.33 75.5844 111.176 75.5269 110.958 75.4928L110.49 75.4164C110.088 75.3482 109.797 75.2017 109.618 74.9763C109.438 74.7468 109.348 74.4679 109.348 74.1407C109.348 73.7112 109.489 73.3794 109.772 73.1453C110.053 72.9072 110.449 72.7881 110.958 72.7881C111.304 72.7881 111.606 72.8415 111.862 72.9479C112.119 73.0537 112.326 73.1987 112.484 73.3814L111.939 73.9875C111.82 73.8557 111.678 73.7534 111.516 73.6812C111.354 73.6048 111.169 73.5662 110.964 73.5662C110.532 73.5662 110.316 73.7427 110.316 74.0959C110.316 74.2491 110.364 74.3636 110.458 74.4404C110.556 74.5167 110.714 74.5742 110.932 74.6124L111.401 74.6954C111.764 74.7595 112.044 74.8953 112.241 75.104C112.437 75.3121 112.535 75.593 112.535 75.9457C112.535 76.1543 112.499 76.3477 112.426 76.5263C112.354 76.7008 112.245 76.854 112.099 76.9858C111.954 77.113 111.775 77.2133 111.561 77.2855C111.351 77.3578 111.105 77.3939 110.823 77.3939ZM114.931 77.3171V72.8649H117.792V73.6491H115.893V74.6699H117.727V75.4546H115.893V76.5329H117.792V77.3171H114.931ZM121.181 72.8649V75.6841C121.181 75.8245 121.186 75.9543 121.195 76.0734C121.207 76.1884 121.233 76.2861 121.271 76.367C121.314 76.4474 121.376 76.5115 121.457 76.5583C121.538 76.6006 121.65 76.622 121.791 76.622C121.932 76.622 122.043 76.6006 122.124 76.5583C122.206 76.5115 122.266 76.4474 122.304 76.367C122.347 76.2861 122.372 76.1884 122.381 76.0734C122.393 75.9543 122.4 75.8245 122.4 75.6841V72.8649H123.362V75.5569C123.362 75.8627 123.34 76.1309 123.298 76.3604C123.26 76.5899 123.182 76.7812 123.067 76.9344C122.952 77.0876 122.791 77.2026 122.586 77.2789C122.381 77.3558 122.116 77.3939 121.791 77.3939C121.466 77.3939 121.201 77.3558 120.996 77.2789C120.79 77.2026 120.63 77.0876 120.515 76.9344C120.399 76.7812 120.32 76.5899 120.277 76.3604C120.239 76.1309 120.22 75.8627 120.22 75.5569V72.8649H121.181ZM128.08 75.3335L128.131 74.0893H128.073L127.24 76.3797L126.406 74.0893H126.348L126.399 75.3335V77.3171H125.566V72.8649H126.701L127.252 74.3636H127.304L127.855 72.8649H128.913V77.3171H128.08V75.3335Z" fill="black"/>
</svg>
