<svg width="741" height="560" viewBox="0 0 741 560" fill="none" xmlns="http://www.w3.org/2000/svg">
<path d="M522.466 251.454C522.466 336.595 454.842 405.564 371.488 405.564C288.133 405.564 220.509 336.595 220.509 251.454C220.509 166.313 288.133 97.345 371.488 97.345C454.842 97.345 522.466 166.313 522.466 251.454Z" fill="#EA5A47" stroke="#EA5A47" stroke-width="3"/>
<path d="M482.266 144.482C499.703 177.708 504.731 216.262 496.416 252.986C488.101 289.709 467.009 322.104 437.057 344.155C407.105 366.206 370.329 376.414 333.559 372.883C296.789 369.352 262.525 352.321 237.13 324.955C247.401 344.491 261.644 361.561 278.905 375.022C296.167 388.483 316.047 398.025 337.215 403.007C358.384 407.99 380.351 408.299 401.646 403.913C422.94 399.527 443.071 390.548 460.689 377.577C478.307 364.606 493.005 347.942 503.799 328.703C514.594 309.463 521.235 288.092 523.278 266.02C525.321 243.948 522.719 221.685 515.646 200.723C508.573 179.761 497.192 160.591 482.266 144.482Z" fill="#D22F27"/>
<path d="M202.643 302.182L202.644 302.182C205.317 309.619 212.77 314.546 223.272 317.362C233.819 320.189 247.793 320.993 264.166 319.905C296.932 317.728 339.667 307.948 384.636 291.117C429.605 274.286 468.398 253.551 494.769 233.596C507.947 223.624 518.093 213.794 524.343 204.686C530.565 195.619 533.124 186.961 530.458 179.534L530.458 179.534C528.396 173.8 523.48 169.553 516.553 166.63C509.783 163.773 500.945 162.111 490.517 161.556L485.839 155.255C510.608 152.377 531.736 152.456 547.593 155.544C564.086 158.756 574.388 165.115 577.667 174.246L579.079 173.739L577.667 174.246C580.534 182.224 577.982 192.128 570.222 203.438C562.491 214.707 549.785 227.068 533.015 239.759C499.49 265.127 450.003 291.602 392.499 313.123C334.995 334.644 280.468 347.098 238.824 349.864C217.991 351.248 200.472 350.201 187.443 346.708C174.369 343.203 166.164 337.341 163.301 329.373C159.963 320.08 163.986 308.184 174.918 294.586C185.427 281.514 202.035 267.244 223.395 252.86L223.748 260.23C215.456 267.899 209.224 275.358 205.518 282.325C201.739 289.432 200.498 296.207 202.643 302.182Z" fill="white" stroke="#EA5A47" stroke-width="3"/>
<circle cx="506.5" cy="399.5" r="11.5" fill="white" stroke="#D5AA13" stroke-width="4"/>
<path d="M532 229.5C532 230.758 531.29 232.085 529.762 233.176C528.238 234.264 526.031 235 523.5 235C520.969 235 518.762 234.264 517.238 233.176C515.71 232.085 515 230.758 515 229.5C515 228.242 515.71 226.915 517.238 225.824C518.762 224.736 520.969 224 523.5 224C526.031 224 528.238 224.736 529.762 225.824C531.29 226.915 532 228.242 532 229.5Z" fill="white" stroke="#D5AA13" stroke-width="4"/>
<circle cx="202" cy="138" r="15" fill="white" stroke="#D5AA13" stroke-width="4"/>
<line x1="187.012" y1="139.871" x2="195.012" y2="132.871" stroke="#D5AA13" stroke-width="3"/>
<line x1="190.012" y1="144.871" x2="198.012" y2="137.871" stroke="#D5AA13" stroke-width="3"/>
<line x1="194.012" y1="148.871" x2="202.012" y2="141.871" stroke="#D5AA13" stroke-width="3"/>
<path d="M166.92 545V528.248H177.624V531.2H170.52V535.04H177.384V537.992H170.52V542.048H177.624V545H166.92ZM205.575 545H201.471L199.743 541.664L198.567 539.024H198.351L197.151 541.664L195.375 545H191.607L196.311 536.336L191.919 528.248H196.023L197.391 530.912L198.615 533.6H198.807L200.055 530.912L201.495 528.248H205.263L200.871 536.384L205.575 545ZM219.605 545V528.248H226.085C226.901 528.248 227.629 528.376 228.269 528.632C228.909 528.872 229.445 529.224 229.877 529.688C230.325 530.152 230.661 530.712 230.885 531.368C231.109 532.024 231.221 532.76 231.221 533.576C231.221 534.392 231.109 535.128 230.885 535.784C230.661 536.44 230.325 537 229.877 537.464C229.445 537.928 228.909 538.288 228.269 538.544C227.629 538.784 226.901 538.904 226.085 538.904H223.229V545H219.605ZM223.229 536H225.173C226.021 536 226.605 535.84 226.925 535.52C227.261 535.2 227.429 534.672 227.429 533.936V533.216C227.429 532.48 227.261 531.952 226.925 531.632C226.605 531.312 226.021 531.152 225.173 531.152H223.229V536ZM246.38 545V528.248H250.004V542.048H257.204V545H246.38ZM277.763 545.288C275.523 545.288 273.867 544.528 272.795 543.008C271.739 541.488 271.211 539.36 271.211 536.624C271.211 533.888 271.739 531.76 272.795 530.24C273.867 528.72 275.523 527.96 277.763 527.96C280.003 527.96 281.651 528.72 282.707 530.24C283.779 531.76 284.315 533.888 284.315 536.624C284.315 539.36 283.779 541.488 282.707 543.008C281.651 544.528 280.003 545.288 277.763 545.288ZM277.763 542.384C278.787 542.384 279.491 542.008 279.875 541.256C280.275 540.488 280.475 539.424 280.475 538.064V535.16C280.475 533.816 280.275 532.768 279.875 532.016C279.491 531.248 278.787 530.864 277.763 530.864C276.739 530.864 276.027 531.248 275.627 532.016C275.243 532.768 275.051 533.816 275.051 535.16V538.088C275.051 539.432 275.243 540.488 275.627 541.256C276.027 542.008 276.739 542.384 277.763 542.384ZM302.329 545H298.777V528.248H305.257C306.073 528.248 306.801 528.376 307.441 528.632C308.081 528.872 308.617 529.224 309.049 529.688C309.497 530.152 309.833 530.712 310.057 531.368C310.281 532.024 310.393 532.76 310.393 533.576C310.393 534.76 310.137 535.776 309.625 536.624C309.113 537.472 308.385 538.032 307.441 538.304L310.729 545H306.793L303.985 538.784H302.329V545ZM304.393 536C305.241 536 305.825 535.84 306.145 535.52C306.481 535.2 306.649 534.672 306.649 533.936V533.216C306.649 532.48 306.481 531.952 306.145 531.632C305.825 531.312 305.241 531.152 304.393 531.152H302.329V536H304.393ZM325.264 545V528.248H335.968V531.2H328.864V535.04H335.728V537.992H328.864V542.048H335.968V545H325.264ZM385.125 531.2V545H381.525V531.2H376.701V528.248H389.949V531.2H385.125ZM409.716 545.288C407.476 545.288 405.82 544.528 404.748 543.008C403.692 541.488 403.164 539.36 403.164 536.624C403.164 533.888 403.692 531.76 404.748 530.24C405.82 528.72 407.476 527.96 409.716 527.96C411.956 527.96 413.604 528.72 414.66 530.24C415.732 531.76 416.268 533.888 416.268 536.624C416.268 539.36 415.732 541.488 414.66 543.008C413.604 544.528 411.956 545.288 409.716 545.288ZM409.716 542.384C410.74 542.384 411.444 542.008 411.828 541.256C412.228 540.488 412.428 539.424 412.428 538.064V535.16C412.428 533.816 412.228 532.768 411.828 532.016C411.444 531.248 410.74 530.864 409.716 530.864C408.692 530.864 407.98 531.248 407.58 532.016C407.196 532.768 407.004 533.816 407.004 535.16V538.088C407.004 539.432 407.196 540.488 407.58 541.256C407.98 542.008 408.692 542.384 409.716 542.384ZM438.77 542.624H438.554C438.41 542.976 438.234 543.312 438.026 543.632C437.818 543.952 437.562 544.24 437.258 544.496C436.954 544.736 436.594 544.928 436.178 545.072C435.778 545.216 435.322 545.288 434.81 545.288C433.994 545.288 433.266 545.096 432.626 544.712C432.002 544.328 431.474 543.768 431.042 543.032C430.61 542.296 430.282 541.4 430.058 540.344C429.85 539.288 429.746 538.096 429.746 536.768C429.746 533.92 430.266 531.744 431.306 530.24C432.346 528.72 433.954 527.96 436.13 527.96C436.994 527.96 437.754 528.08 438.41 528.32C439.066 528.544 439.626 528.872 440.09 529.304C440.57 529.72 440.962 530.224 441.266 530.816C441.57 531.408 441.81 532.064 441.986 532.784L438.626 533.6C438.53 533.248 438.418 532.912 438.29 532.592C438.178 532.256 438.026 531.96 437.834 531.704C437.642 531.448 437.402 531.248 437.114 531.104C436.826 530.944 436.474 530.864 436.058 530.864C435.146 530.864 434.498 531.24 434.114 531.992C433.746 532.744 433.562 533.8 433.562 535.16V537.896C433.562 539.256 433.762 540.344 434.162 541.16C434.578 541.976 435.306 542.384 436.346 542.384C437.162 542.384 437.77 542.144 438.17 541.664C438.57 541.184 438.77 540.568 438.77 539.816V538.592H435.914V536.048H441.986V545H438.77V542.624ZM457.217 545V528.248H467.921V531.2H460.817V535.04H467.681V537.992H460.817V542.048H467.921V545H457.217ZM490.688 531.2V545H487.088V531.2H482.264V528.248H495.512V531.2H490.688ZM517.39 537.992H513.166V545H509.542V528.248H513.166V535.04H517.39V528.248H521.014V545H517.39V537.992ZM536.389 545V528.248H547.093V531.2H539.989V535.04H546.853V537.992H539.989V542.048H547.093V545H536.389ZM566.235 545H562.683V528.248H569.163C569.979 528.248 570.707 528.376 571.347 528.632C571.987 528.872 572.523 529.224 572.955 529.688C573.403 530.152 573.739 530.712 573.963 531.368C574.187 532.024 574.299 532.76 574.299 533.576C574.299 534.76 574.043 535.776 573.531 536.624C573.019 537.472 572.291 538.032 571.347 538.304L574.635 545H570.699L567.891 538.784H566.235V545ZM568.299 536C569.147 536 569.731 535.84 570.051 535.52C570.387 535.2 570.555 534.672 570.555 533.936V533.216C570.555 532.48 570.387 531.952 570.051 531.632C569.731 531.312 569.147 531.152 568.299 531.152H566.235V536H568.299Z" fill="#EA5A47"/>
<path d="M11.376 511.432C8.016 511.432 5.52 510.304 3.888 508.048C2.28 505.768 1.476 502.564 1.476 498.436C1.476 494.308 2.28 491.116 3.888 488.86C5.52 486.58 8.016 485.44 11.376 485.44C12.672 485.44 13.812 485.62 14.796 485.98C15.804 486.316 16.668 486.796 17.388 487.42C18.108 488.044 18.696 488.8 19.152 489.688C19.632 490.576 20.004 491.572 20.268 492.676L15.228 493.9C15.084 493.3 14.916 492.748 14.724 492.244C14.532 491.74 14.28 491.308 13.968 490.948C13.68 490.588 13.308 490.312 12.852 490.12C12.42 489.904 11.892 489.796 11.268 489.796C9.804 489.796 8.76 490.372 8.136 491.524C7.536 492.652 7.236 494.224 7.236 496.24V500.632C7.236 502.648 7.536 504.232 8.136 505.384C8.76 506.512 9.804 507.076 11.268 507.076C12.516 507.076 13.416 506.692 13.968 505.924C14.544 505.156 14.964 504.172 15.228 502.972L20.268 504.196C20.004 505.3 19.632 506.296 19.152 507.184C18.696 508.072 18.108 508.84 17.388 509.488C16.668 510.112 15.804 510.592 14.796 510.928C13.812 511.264 12.672 511.432 11.376 511.432ZM41.3859 511.432C38.0259 511.432 35.5419 510.292 33.9339 508.012C32.3499 505.732 31.5579 502.54 31.5579 498.436C31.5579 494.332 32.3499 491.14 33.9339 488.86C35.5419 486.58 38.0259 485.44 41.3859 485.44C44.7459 485.44 47.2179 486.58 48.8019 488.86C50.4099 491.14 51.2139 494.332 51.2139 498.436C51.2139 502.54 50.4099 505.732 48.8019 508.012C47.2179 510.292 44.7459 511.432 41.3859 511.432ZM41.3859 507.076C42.9219 507.076 43.9779 506.512 44.5539 505.384C45.1539 504.232 45.4539 502.636 45.4539 500.596V496.24C45.4539 494.224 45.1539 492.652 44.5539 491.524C43.9779 490.372 42.9219 489.796 41.3859 489.796C39.8499 489.796 38.7819 490.372 38.1819 491.524C37.6059 492.652 37.3179 494.224 37.3179 496.24V500.632C37.3179 502.648 37.6059 504.232 38.1819 505.384C38.7819 506.512 39.8499 507.076 41.3859 507.076ZM76.6879 499.804L76.9759 492.784H76.6519L71.9719 505.708L67.2919 492.784H66.9679L67.2559 499.804V511H62.5759V485.872H68.9479L72.0439 494.332H72.3319L75.4279 485.872H81.3679V511H76.6879V499.804ZM107.274 499.804L107.562 492.784H107.238L102.558 505.708L97.8778 492.784H97.5538L97.8418 499.804V511H93.1618V485.872H99.5338L102.63 494.332H102.918L106.014 485.872H111.954V511H107.274V499.804ZM129.724 485.872V501.784C129.724 502.576 129.748 503.308 129.796 503.98C129.868 504.628 130.012 505.18 130.228 505.636C130.468 506.092 130.816 506.452 131.272 506.716C131.728 506.956 132.352 507.076 133.144 507.076C133.936 507.076 134.56 506.956 135.016 506.716C135.472 506.452 135.808 506.092 136.024 505.636C136.264 505.18 136.408 504.628 136.456 503.98C136.528 503.308 136.564 502.576 136.564 501.784V485.872H141.964V501.064C141.964 502.792 141.844 504.304 141.604 505.6C141.388 506.896 140.956 507.976 140.308 508.84C139.66 509.704 138.76 510.352 137.608 510.784C136.456 511.216 134.968 511.432 133.144 511.432C131.32 511.432 129.832 511.216 128.68 510.784C127.528 510.352 126.628 509.704 125.98 508.84C125.332 507.976 124.888 506.896 124.648 505.6C124.432 504.304 124.324 502.792 124.324 501.064V485.872H129.724ZM160.13 494.296H159.734V511H155.126V485.872H161.606L167.33 502.576H167.726V485.872H172.334V511H165.854L160.13 494.296ZM186.216 511V507.004H191.616V489.868H186.216V485.872H202.416V489.868H197.016V507.004H202.416V511H186.216ZM227.602 490.3V511H222.202V490.3H214.966V485.872H234.838V490.3H227.602ZM252.788 511V502.108L244.832 485.872H250.844L253.508 491.704L255.452 496.636H255.74L257.684 491.704L260.348 485.872H266.144L258.188 502.108V511H252.788ZM316.263 511.432C314.151 511.432 312.315 511.084 310.755 510.388C309.195 509.692 307.935 508.744 306.975 507.544L310.107 504.088C311.019 505.096 312.015 505.84 313.095 506.32C314.199 506.8 315.315 507.04 316.443 507.04C317.739 507.04 318.723 506.752 319.395 506.176C320.067 505.6 320.403 504.772 320.403 503.692C320.403 502.804 320.139 502.132 319.611 501.676C319.107 501.22 318.243 500.896 317.019 500.704L314.391 500.272C312.135 499.888 310.503 499.06 309.495 497.788C308.487 496.492 307.983 494.92 307.983 493.072C307.983 490.648 308.775 488.776 310.359 487.456C311.943 486.112 314.163 485.44 317.019 485.44C318.963 485.44 320.655 485.74 322.095 486.34C323.535 486.94 324.699 487.756 325.587 488.788L322.527 492.208C321.855 491.464 321.063 490.888 320.151 490.48C319.239 490.048 318.207 489.832 317.055 489.832C314.631 489.832 313.419 490.828 313.419 492.82C313.419 493.684 313.683 494.332 314.211 494.764C314.763 495.196 315.651 495.52 316.875 495.736L319.503 496.204C321.543 496.564 323.115 497.332 324.219 498.508C325.323 499.684 325.875 501.268 325.875 503.26C325.875 504.436 325.671 505.528 325.263 506.536C324.855 507.52 324.243 508.384 323.427 509.128C322.611 509.848 321.603 510.412 320.403 510.82C319.227 511.228 317.847 511.432 316.263 511.432ZM347.821 511.432C344.461 511.432 341.965 510.304 340.333 508.048C338.725 505.768 337.921 502.564 337.921 498.436C337.921 494.308 338.725 491.116 340.333 488.86C341.965 486.58 344.461 485.44 347.821 485.44C349.117 485.44 350.257 485.62 351.241 485.98C352.249 486.316 353.113 486.796 353.833 487.42C354.553 488.044 355.141 488.8 355.597 489.688C356.077 490.576 356.449 491.572 356.713 492.676L351.673 493.9C351.529 493.3 351.361 492.748 351.169 492.244C350.977 491.74 350.725 491.308 350.413 490.948C350.125 490.588 349.753 490.312 349.297 490.12C348.865 489.904 348.337 489.796 347.713 489.796C346.249 489.796 345.205 490.372 344.581 491.524C343.981 492.652 343.681 494.224 343.681 496.24V500.632C343.681 502.648 343.981 504.232 344.581 505.384C345.205 506.512 346.249 507.076 347.713 507.076C348.961 507.076 349.861 506.692 350.413 505.924C350.989 505.156 351.409 504.172 351.673 502.972L356.713 504.196C356.449 505.3 356.077 506.296 355.597 507.184C355.141 508.072 354.553 508.84 353.833 509.488C353.113 510.112 352.249 510.592 351.241 510.928C350.257 511.264 349.117 511.432 347.821 511.432ZM369.731 511V507.004H375.131V489.868H369.731V485.872H385.931V489.868H380.531V507.004H385.931V511H369.731ZM400.497 511V485.872H416.553V490.3H405.897V496.06H416.193V500.488H405.897V506.572H416.553V511H400.497ZM435.403 494.296H435.007V511H430.399V485.872H436.879L442.603 502.576H442.999V485.872H447.607V511H441.127L435.403 494.296ZM470.165 511.432C466.805 511.432 464.309 510.304 462.677 508.048C461.069 505.768 460.265 502.564 460.265 498.436C460.265 494.308 461.069 491.116 462.677 488.86C464.309 486.58 466.805 485.44 470.165 485.44C471.461 485.44 472.601 485.62 473.585 485.98C474.593 486.316 475.457 486.796 476.177 487.42C476.897 488.044 477.485 488.8 477.941 489.688C478.421 490.576 478.793 491.572 479.057 492.676L474.017 493.9C473.873 493.3 473.705 492.748 473.513 492.244C473.321 491.74 473.069 491.308 472.757 490.948C472.469 490.588 472.097 490.312 471.641 490.12C471.209 489.904 470.681 489.796 470.057 489.796C468.593 489.796 467.549 490.372 466.925 491.524C466.325 492.652 466.025 494.224 466.025 496.24V500.632C466.025 502.648 466.325 504.232 466.925 505.384C467.549 506.512 468.593 507.076 470.057 507.076C471.305 507.076 472.205 506.692 472.757 505.924C473.333 505.156 473.753 504.172 474.017 502.972L479.057 504.196C478.793 505.3 478.421 506.296 477.941 507.184C477.485 508.072 476.897 508.84 476.177 509.488C475.457 510.112 474.593 510.592 473.585 510.928C472.601 511.264 471.461 511.432 470.165 511.432ZM492.255 511V485.872H508.311V490.3H497.655V496.06H507.951V500.488H497.655V506.572H508.311V511H492.255ZM566.063 499.804L566.351 492.784H566.027L561.347 505.708L556.667 492.784H556.343L556.631 499.804V511H551.951V485.872H558.323L561.419 494.332H561.707L564.803 485.872H570.743V511H566.063V499.804ZM588.513 485.872V501.784C588.513 502.576 588.537 503.308 588.585 503.98C588.657 504.628 588.801 505.18 589.017 505.636C589.257 506.092 589.605 506.452 590.061 506.716C590.517 506.956 591.141 507.076 591.933 507.076C592.725 507.076 593.349 506.956 593.805 506.716C594.261 506.452 594.597 506.092 594.813 505.636C595.053 505.18 595.197 504.628 595.245 503.98C595.317 503.308 595.353 502.576 595.353 501.784V485.872H600.753V501.064C600.753 502.792 600.633 504.304 600.393 505.6C600.177 506.896 599.745 507.976 599.097 508.84C598.449 509.704 597.549 510.352 596.397 510.784C595.245 511.216 593.757 511.432 591.933 511.432C590.109 511.432 588.621 511.216 587.469 510.784C586.317 510.352 585.417 509.704 584.769 508.84C584.121 507.976 583.677 506.896 583.437 505.6C583.221 504.304 583.113 502.792 583.113 501.064V485.872H588.513ZM622.123 511.432C620.011 511.432 618.175 511.084 616.615 510.388C615.055 509.692 613.795 508.744 612.835 507.544L615.967 504.088C616.879 505.096 617.875 505.84 618.955 506.32C620.059 506.8 621.175 507.04 622.303 507.04C623.599 507.04 624.583 506.752 625.255 506.176C625.927 505.6 626.263 504.772 626.263 503.692C626.263 502.804 625.999 502.132 625.471 501.676C624.967 501.22 624.103 500.896 622.879 500.704L620.251 500.272C617.995 499.888 616.363 499.06 615.355 497.788C614.347 496.492 613.843 494.92 613.843 493.072C613.843 490.648 614.635 488.776 616.219 487.456C617.803 486.112 620.023 485.44 622.879 485.44C624.823 485.44 626.515 485.74 627.955 486.34C629.395 486.94 630.559 487.756 631.447 488.788L628.387 492.208C627.715 491.464 626.923 490.888 626.011 490.48C625.099 490.048 624.067 489.832 622.915 489.832C620.491 489.832 619.279 490.828 619.279 492.82C619.279 493.684 619.543 494.332 620.071 494.764C620.623 495.196 621.511 495.52 622.735 495.736L625.363 496.204C627.403 496.564 628.975 497.332 630.079 498.508C631.183 499.684 631.735 501.268 631.735 503.26C631.735 504.436 631.531 505.528 631.123 506.536C630.715 507.52 630.103 508.384 629.287 509.128C628.471 509.848 627.463 510.412 626.263 510.82C625.087 511.228 623.707 511.432 622.123 511.432ZM645.185 511V485.872H661.241V490.3H650.585V496.06H660.881V500.488H650.585V506.572H661.241V511H645.185ZM680.271 485.872V501.784C680.271 502.576 680.295 503.308 680.343 503.98C680.415 504.628 680.559 505.18 680.775 505.636C681.015 506.092 681.363 506.452 681.819 506.716C682.275 506.956 682.899 507.076 683.691 507.076C684.483 507.076 685.107 506.956 685.563 506.716C686.019 506.452 686.355 506.092 686.571 505.636C686.811 505.18 686.955 504.628 687.003 503.98C687.075 503.308 687.111 502.576 687.111 501.784V485.872H692.511V501.064C692.511 502.792 692.391 504.304 692.151 505.6C691.935 506.896 691.503 507.976 690.855 508.84C690.207 509.704 689.307 510.352 688.155 510.784C687.003 511.216 685.515 511.432 683.691 511.432C681.867 511.432 680.379 511.216 679.227 510.784C678.075 510.352 677.175 509.704 676.527 508.84C675.879 507.976 675.435 506.896 675.195 505.6C674.979 504.304 674.871 502.792 674.871 501.064V485.872H680.271ZM718.993 499.804L719.281 492.784H718.957L714.277 505.708L709.597 492.784H709.273L709.561 499.804V511H704.881V485.872H711.253L714.349 494.332H714.637L717.733 485.872H723.673V511H718.993V499.804Z" fill="#D5AA13"/>
</svg>
