<svg width="18" height="20" viewBox="0 0 18 20" fill="none" xmlns="http://www.w3.org/2000/svg">
<g clip-path="url(#clip0_196_3915)">
<path d="M13.0866 7.20142C14.3747 8.12177 15.9528 8.66328 17.6571 8.66328V5.38535C17.3345 5.38542 17.0128 5.35177 16.6973 5.28494V7.86515C14.993 7.86515 13.4152 7.3237 12.1268 6.40342V13.0928C12.1268 16.4392 9.41256 19.1518 6.0647 19.1518C4.81553 19.1518 3.65442 18.7743 2.68994 18.1269C3.79077 19.252 5.32594 19.9498 7.02429 19.9498C10.3724 19.9498 13.0867 17.2373 13.0867 13.8907V7.20142H13.0866ZM14.2707 3.89439C13.6124 3.17556 13.1801 2.24659 13.0866 1.21956V0.797974H12.177C12.4059 2.10328 13.187 3.21846 14.2707 3.89439ZM4.80746 15.5591C4.43966 15.0771 4.24084 14.4874 4.24173 13.8811C4.24173 12.3507 5.48318 11.1097 7.01484 11.1097C7.30023 11.1096 7.58395 11.1534 7.85601 11.2396V7.88832C7.53808 7.8448 7.21725 7.82625 6.89656 7.83308V10.4415C6.62437 10.3552 6.34051 10.3114 6.05498 10.3117C4.52339 10.3117 3.28201 11.5525 3.28201 13.0832C3.28201 14.1656 3.90249 15.1026 4.80746 15.5591Z" fill="#FF004F"/>
<path d="M12.127 6.40335C13.4154 7.32363 14.9932 7.86508 16.6974 7.86508V5.28487C15.7461 5.08232 14.904 4.58549 14.2708 3.89439C13.187 3.21839 12.4061 2.10322 12.1772 0.797974H9.78799V13.8906C9.78254 15.4169 8.54323 16.6528 7.01489 16.6528C6.11433 16.6528 5.3142 16.2238 4.80751 15.559C3.90268 15.1026 3.28213 14.1655 3.28213 13.0833C3.28213 11.5527 4.52351 10.3118 6.05509 10.3118C6.34854 10.3118 6.63137 10.3574 6.89668 10.4416V7.83315C3.60757 7.90108 0.962402 10.5871 0.962402 13.8907C0.962402 15.5398 1.62109 17.0347 2.6902 18.1271C3.65468 18.7743 4.81571 19.1519 6.06495 19.1519C9.41288 19.1519 12.127 16.4391 12.127 13.0928V6.40342L12.127 6.40335Z" fill="black"/>
<path d="M16.6973 5.28483V4.58731C15.8394 4.58861 14.9985 4.34849 14.2706 3.89441C14.9149 4.59939 15.7633 5.08554 16.6973 5.28497V5.28483ZM12.1769 0.797931C12.1551 0.673214 12.1383 0.547663 12.1267 0.421586V0H8.82782V13.0928C8.82258 14.619 7.58327 15.8548 6.05486 15.8548C5.62156 15.8555 5.19419 15.7542 4.80727 15.5592C5.31396 16.2238 6.1141 16.6528 7.01465 16.6528C8.54292 16.6528 9.78237 15.417 9.78775 13.8907V0.798H12.1769V0.797931ZM6.89665 7.8331V7.09041C6.62099 7.05273 6.34308 7.03389 6.06486 7.034C2.71658 7.034 0.00244141 9.74669 0.00244141 13.0928C0.00244141 15.1906 1.06913 17.0394 2.6901 18.127C1.62099 17.0347 0.962303 15.5397 0.962303 13.8906C0.962303 10.5872 3.60741 7.90103 6.89665 7.8331Z" fill="#00F2EA"/>
</g>
<defs>
<clipPath id="clip0_196_3915">
<rect width="17.66" height="20" fill="white"/>
</clipPath>
</defs>
</svg>
