<svg width="197" height="197" viewBox="0 0 197 197" fill="none" xmlns="http://www.w3.org/2000/svg">
<path d="M157.6 98.2264C157.6 84.8195 168.271 73.3278 183.32 69.2236V54.9958H13.6807V70.0445C27.0876 74.6959 36.664 85.6403 36.664 98.2264C36.664 110.813 27.0876 122.031 13.6807 126.682V141.731H183.32V127.503C168.545 123.399 157.6 111.907 157.6 98.2264Z" fill="#0054A3"/>
<path d="M156.232 97.4056C156.232 83.9987 166.903 72.507 181.951 68.4028V54.175H12.3125V69.2237C25.7194 73.875 35.2958 84.8195 35.2958 97.4056C35.2958 109.992 25.7194 120.936 12.3125 125.588V140.636H181.951V126.408C167.176 122.304 156.232 110.813 156.232 97.4056Z" stroke="black" stroke-width="2.216" stroke-miterlimit="10" stroke-linejoin="round"/>
<path d="M50.6182 68.4028H143.646V123.125H50.6182V68.4028Z" stroke="black" stroke-width="2.095" stroke-miterlimit="10" stroke-linejoin="round"/>
<path d="M50.6182 68.4028H143.646V123.125H50.6182V68.4028Z" stroke="white" stroke-width="2.1" stroke-miterlimit="10" stroke-linejoin="round"/>
<path d="M66.8125 87.7812V102H64.957V87.7812H66.8125ZM71.3828 87.7812V89.3242H60.3965V87.7812H71.3828ZM75.5137 87.7812V102H73.6289V87.7812H75.5137ZM87.5254 97.4785H89.4004C89.3027 98.377 89.0456 99.181 88.6289 99.8906C88.2122 100.6 87.623 101.163 86.8613 101.58C86.0996 101.99 85.1491 102.195 84.0098 102.195C83.1764 102.195 82.418 102.039 81.7344 101.727C81.0573 101.414 80.4746 100.971 79.9863 100.398C79.498 99.819 79.1204 99.1257 78.8535 98.3184C78.5931 97.5046 78.4629 96.5996 78.4629 95.6035V94.1875C78.4629 93.1914 78.5931 92.2897 78.8535 91.4824C79.1204 90.6686 79.5013 89.972 79.9961 89.3926C80.4974 88.8132 81.0996 88.3672 81.8027 88.0547C82.5059 87.7422 83.2969 87.5859 84.1758 87.5859C85.25 87.5859 86.1582 87.7878 86.9004 88.1914C87.6426 88.5951 88.2188 89.1549 88.6289 89.8711C89.0456 90.5807 89.3027 91.4043 89.4004 92.3418H87.5254C87.4342 91.6777 87.265 91.1081 87.0176 90.6328C86.7702 90.151 86.4186 89.7799 85.9629 89.5195C85.5072 89.2591 84.9115 89.1289 84.1758 89.1289C83.5443 89.1289 82.9876 89.2493 82.5059 89.4902C82.0306 89.7311 81.6302 90.0729 81.3047 90.5156C80.9857 90.9583 80.7448 91.4889 80.582 92.1074C80.4193 92.7259 80.3379 93.4128 80.3379 94.168V95.6035C80.3379 96.3001 80.4095 96.9544 80.5527 97.5664C80.7025 98.1784 80.9271 98.7155 81.2266 99.1777C81.526 99.64 81.9069 100.005 82.3691 100.271C82.8314 100.532 83.3783 100.662 84.0098 100.662C84.8105 100.662 85.4486 100.535 85.9238 100.281C86.3991 100.027 86.7572 99.6628 86.998 99.1875C87.2454 98.7122 87.4212 98.1426 87.5254 97.4785ZM93.8535 87.7812V102H91.9688V87.7812H93.8535ZM102.438 87.7812L96.5293 94.4121L93.209 97.8594L92.8965 95.8477L95.3965 93.0938L100.172 87.7812H102.438ZM100.621 102L95.3574 95.0664L96.4805 93.5723L102.867 102H100.621ZM113.561 100.467V102H106.031V100.467H113.561ZM106.412 87.7812V102H104.527V87.7812H106.412ZM112.564 93.8945V95.4277H106.031V93.8945H112.564ZM113.463 87.7812V89.3242H106.031V87.7812H113.463ZM121.344 87.7812V102H119.488V87.7812H121.344ZM125.914 87.7812V89.3242H114.928V87.7812H125.914ZM135.445 98.4062C135.445 98.0742 135.393 97.7812 135.289 97.5273C135.191 97.2669 135.016 97.0326 134.762 96.8242C134.514 96.6159 134.169 96.4173 133.727 96.2285C133.29 96.0397 132.737 95.8477 132.066 95.6523C131.363 95.444 130.729 95.2129 130.162 94.959C129.596 94.6986 129.111 94.4023 128.707 94.0703C128.303 93.7383 127.994 93.3574 127.779 92.9277C127.564 92.498 127.457 92.0065 127.457 91.4531C127.457 90.8997 127.571 90.3887 127.799 89.9199C128.027 89.4512 128.352 89.0443 128.775 88.6992C129.205 88.3477 129.716 88.0742 130.309 87.8789C130.901 87.6836 131.562 87.5859 132.291 87.5859C133.359 87.5859 134.264 87.791 135.006 88.2012C135.755 88.6048 136.324 89.1354 136.715 89.793C137.105 90.444 137.301 91.1406 137.301 91.8828H135.426C135.426 91.349 135.312 90.877 135.084 90.4668C134.856 90.0501 134.511 89.7246 134.049 89.4902C133.587 89.2493 133.001 89.1289 132.291 89.1289C131.62 89.1289 131.067 89.2298 130.631 89.4316C130.195 89.6335 129.869 89.9069 129.654 90.252C129.446 90.597 129.342 90.9909 129.342 91.4336C129.342 91.7331 129.404 92.0065 129.527 92.2539C129.658 92.4948 129.856 92.7194 130.123 92.9277C130.396 93.1361 130.742 93.3281 131.158 93.5039C131.581 93.6797 132.086 93.849 132.672 94.0117C133.479 94.2396 134.176 94.4935 134.762 94.7734C135.348 95.0534 135.829 95.3691 136.207 95.7207C136.591 96.0658 136.874 96.4596 137.057 96.9023C137.245 97.3385 137.34 97.8333 137.34 98.3867C137.34 98.9661 137.223 99.4902 136.988 99.959C136.754 100.428 136.419 100.828 135.982 101.16C135.546 101.492 135.022 101.749 134.41 101.932C133.805 102.107 133.128 102.195 132.379 102.195C131.721 102.195 131.074 102.104 130.436 101.922C129.804 101.74 129.228 101.466 128.707 101.102C128.193 100.737 127.779 100.288 127.467 99.7539C127.161 99.2135 127.008 98.5885 127.008 97.8789H128.883C128.883 98.3672 128.977 98.7871 129.166 99.1387C129.355 99.4837 129.612 99.7702 129.938 99.998C130.27 100.226 130.644 100.395 131.061 100.506C131.484 100.61 131.923 100.662 132.379 100.662C133.036 100.662 133.593 100.571 134.049 100.389C134.505 100.206 134.85 99.946 135.084 99.6074C135.325 99.2689 135.445 98.8685 135.445 98.4062Z" fill="white"/>
</svg>
