<svg width="103" height="103" viewBox="0 0 103 103" fill="none" xmlns="http://www.w3.org/2000/svg">
<g filter="url(#filter0_d_92_510)">
<rect x="4" width="95" height="95" rx="47.5" fill="#8BA7C2"/>
<rect x="19" y="15" width="64" height="64" rx="32" fill="#8BA7C2"/>
<path d="M53.6839 58.248C53.5707 57.9393 53.3401 57.6878 53.0422 57.5485C52.7444 57.4091 52.4035 57.3931 52.094 57.504L51.743 57.632C51.435 57.7466 51.1846 57.9781 51.0461 58.2761C50.9075 58.5741 50.8921 58.9146 51.0029 59.224L52.5589 63.5C52.7909 64.139 53.509 64.475 54.147 64.243L54.499 64.113C55.138 63.882 55.474 63.162 55.24 62.521L53.6839 58.248ZM53.998 63.175L53.925 63.201C53.8663 63.2212 53.802 63.218 53.7457 63.1919C53.6894 63.1658 53.6454 63.1189 53.623 63.061L52.101 58.875C52.0805 58.8158 52.0839 58.751 52.1104 58.6942C52.1369 58.6375 52.1844 58.5933 52.243 58.571L52.317 58.545C52.376 58.5246 52.4407 58.528 52.4973 58.5545C52.5539 58.581 52.5979 58.6285 52.6199 58.687L54.143 62.871C54.1625 62.9306 54.1583 62.9954 54.1313 63.052C54.1043 63.1086 54.0566 63.1527 53.998 63.175ZM57.1899 56.771L56.368 57.072C56.3506 57.0777 56.3347 57.0869 56.321 57.0989C56.3073 57.1109 56.2962 57.1256 56.2884 57.1421C56.2805 57.1585 56.2761 57.1764 56.2753 57.1946C56.2746 57.2128 56.2775 57.231 56.284 57.248L57.262 59.931L55.321 57.589C55.2779 57.53 55.175 57.507 55.101 57.533L54.49 57.755C54.416 57.782 54.382 57.858 54.408 57.934L56.3349 63.228C56.36 63.299 56.435 63.337 56.511 63.309L57.333 63.008C57.408 62.983 57.441 62.906 57.415 62.832L56.541 60.426L58.3989 62.486C58.4409 62.542 58.545 62.567 58.618 62.541L59.212 62.325C59.2289 62.3189 59.2445 62.3094 59.2578 62.2973C59.2711 62.2851 59.2819 62.2704 59.2895 62.254C59.2971 62.2377 59.3014 62.22 59.3022 62.202C59.303 62.1839 59.3002 62.1659 59.294 62.149L57.367 56.855C57.3614 56.8375 57.3523 56.8213 57.3402 56.8075C57.3281 56.7936 57.3133 56.7824 57.2967 56.7745C57.2801 56.7667 57.2621 56.7623 57.2437 56.7617C57.2253 56.7611 57.207 56.7642 57.1899 56.771ZM61.914 60.111L60.86 60.496L60.407 59.247L61.3219 58.914C61.339 58.9079 61.3547 58.8984 61.3681 58.8862C61.3815 58.8739 61.3923 58.8591 61.4 58.8426C61.4076 58.8262 61.4119 58.8084 61.4126 58.7902C61.4132 58.7721 61.4103 58.754 61.404 58.737L61.104 57.913C61.0983 57.8956 61.0891 57.8795 61.077 57.8658C61.0648 57.8521 61.05 57.8411 61.0333 57.8334C61.0167 57.8257 60.9987 57.8215 60.9804 57.8211C60.9621 57.8207 60.9439 57.824 60.9269 57.831L60.012 58.164L59.627 57.108L60.681 56.726C60.6986 56.7201 60.7148 56.7107 60.7286 56.6983C60.7424 56.6859 60.7535 56.6708 60.7612 56.6539C60.7689 56.637 60.773 56.6187 60.7733 56.6001C60.7736 56.5816 60.7701 56.5631 60.763 56.546L60.465 55.724C60.4593 55.7066 60.4501 55.6905 60.438 55.6768C60.4258 55.663 60.411 55.6519 60.3944 55.6442C60.3778 55.6364 60.3598 55.6321 60.3415 55.6315C60.3232 55.631 60.305 55.6342 60.2879 55.641L58.2809 56.371C58.2637 56.3769 58.2478 56.3862 58.2343 56.3984C58.2207 56.4106 58.2098 56.4254 58.2021 56.442C58.1945 56.4585 58.1903 56.4764 58.1897 56.4947C58.1892 56.5129 58.1923 56.531 58.199 56.548L60.124 61.843C60.1299 61.8602 60.1392 61.8761 60.1514 61.8897C60.1636 61.9033 60.1783 61.9143 60.1949 61.922C60.2114 61.9298 60.2293 61.9341 60.2475 61.9348C60.2657 61.9355 60.2839 61.9325 60.301 61.926L62.308 61.195C62.3254 61.1894 62.3414 61.1802 62.3551 61.168C62.3688 61.1558 62.3798 61.141 62.3874 61.1243C62.395 61.1077 62.3991 61.0896 62.3994 61.0713C62.3996 61.053 62.3961 61.0349 62.389 61.018L62.09 60.194C62.0843 60.1767 62.0751 60.1607 62.0631 60.1471C62.051 60.1334 62.0363 60.1224 62.0198 60.1146C62.0033 60.1069 61.9855 60.1025 61.9673 60.1019C61.9491 60.1013 61.9309 60.1044 61.914 60.111Z" fill="black"/>
<path d="M81 56.071L80.131 53.682L80.113 53.69C79.9563 53.747 79.79 53.7726 79.6234 53.7652C79.4569 53.7579 79.2934 53.7178 79.1424 53.6472C78.9914 53.5766 78.8557 53.4769 78.7433 53.3539C78.6308 53.2308 78.5437 53.0868 78.487 52.93C78.4296 52.7718 78.4041 52.6037 78.4122 52.4356C78.4203 52.2675 78.4616 52.1026 78.5339 51.9506C78.6062 51.7986 78.708 51.6624 78.8333 51.5501C78.9586 51.4377 79.105 51.3513 79.264 51.296L78.396 48.909C78.39 48.91 78.384 48.914 78.378 48.916C78.0613 49.0312 77.7119 49.016 77.4065 48.8735C77.101 48.7311 76.8647 48.4732 76.7495 48.1565C76.6343 47.8398 76.6495 47.4904 76.792 47.185C76.9344 46.8796 77.1923 46.6432 77.509 46.528L77.528 46.523L76.66 44.134C76.5029 44.1934 76.3355 44.221 76.1677 44.2154C75.9998 44.2098 75.8347 44.171 75.6819 44.1013C75.529 44.0316 75.3915 43.9323 75.2772 43.8092C75.163 43.6861 75.0742 43.5416 75.016 43.384C74.776 42.725 75.116 41.995 75.774 41.755C75.779 41.752 75.787 41.751 75.793 41.749L74.925 39.361C74.918 39.362 74.911 39.365 74.905 39.367C74.5994 39.4788 74.2626 39.4687 73.9643 39.3387C73.666 39.2088 73.4292 38.9689 73.303 38.669C72.5086 38.7614 71.7036 38.6821 70.9425 38.4366C70.1813 38.1911 69.4817 37.7851 68.891 37.246C68.8852 36.0169 69.2832 34.8199 70.024 33.839C69.8323 33.5821 69.7449 33.2622 69.7794 32.9435C69.8139 32.6248 69.9677 32.3309 70.21 32.121L68.576 30.175C68.571 30.178 68.568 30.183 68.562 30.189C68.4344 30.2963 68.2869 30.3773 68.128 30.4274C67.969 30.4776 67.8017 30.4958 67.6357 30.4812C67.4697 30.4665 67.3082 30.4192 67.1605 30.3419C67.0128 30.2647 66.8818 30.159 66.775 30.031C66.5585 29.7731 66.4533 29.4397 66.4826 29.1042C66.5118 28.7687 66.6731 28.4586 66.931 28.242C66.936 28.239 66.941 28.234 66.946 28.229L65.314 26.284L65.3 26.296C65.1727 26.4066 65.0247 26.4908 64.8646 26.5436C64.7045 26.5964 64.5355 26.6168 64.3674 26.6036C64.1993 26.5904 64.0355 26.5438 63.8856 26.4666C63.7357 26.3895 63.6026 26.2832 63.4942 26.1541C63.3858 26.025 63.3042 25.8755 63.2541 25.7145C63.2041 25.5535 63.1866 25.3842 63.2027 25.2163C63.2187 25.0485 63.2681 24.8855 63.3478 24.737C63.4275 24.5884 63.536 24.4572 63.667 24.351L63.683 24.339L62.051 22.393C61.924 22.5033 61.7764 22.5871 61.6167 22.6397C61.457 22.6923 61.2884 22.7126 61.1207 22.6994C60.9531 22.6862 60.7898 22.6397 60.6403 22.5627C60.4908 22.4858 60.3581 22.3798 60.25 22.251C60.1426 22.1233 60.0614 21.9757 60.011 21.8166C59.9607 21.6576 59.9422 21.4901 59.9566 21.3239C59.971 21.1577 60.018 20.9959 60.0949 20.8478C60.1719 20.6998 60.2772 20.5683 60.405 20.461C60.41 20.456 60.416 20.453 60.421 20.45L58.788 18.502L58.772 18.515C58.5229 18.7242 58.2029 18.8295 57.8782 18.8093C57.5535 18.789 57.2491 18.6446 57.028 18.406C56.2452 18.8018 55.3802 19.0077 54.503 19.007C53.6829 19.0082 52.8726 18.8292 52.1293 18.4825C51.3861 18.1359 50.7281 17.6301 50.202 17.001L21.692 40.94C22.649 42.0815 23.1137 43.5563 22.984 45.0402C22.8542 46.5242 22.1406 47.8959 21 48.854L31.283 61.118L35.84 73.643C37.239 73.1344 38.7828 73.2023 40.1317 73.8318C41.4807 74.4614 42.5243 75.601 43.033 77L78.007 64.262C77.572 63.0661 77.5559 61.7578 77.9614 60.5515C78.3669 59.3452 79.1699 58.3124 80.239 57.622C80.1468 57.3152 80.174 56.9848 80.3151 56.6972C80.4563 56.4095 80.7009 56.1859 81 56.071ZM69.077 42.632L74.422 57.327C74.5628 57.7162 74.5435 58.1454 74.3685 58.5205C74.1934 58.8956 73.8768 59.186 73.488 59.328L43.322 70.314C42.9336 70.4545 42.5053 70.4353 42.1309 70.2606C41.7566 70.0859 41.4668 69.77 41.325 69.382L39.012 63.024C40.056 63.3371 40.9853 63.9493 41.685 64.785L50.874 57.069L52.19 56.589C52.4495 56.4919 52.6694 56.3113 52.8151 56.0756C52.9608 55.84 53.0241 55.5626 52.995 55.287L53.669 54.722L54.049 55.766C54.0549 55.7834 54.0643 55.7994 54.0765 55.813C54.0888 55.8267 54.1037 55.8377 54.1203 55.8455C54.1369 55.8532 54.1549 55.8576 54.1733 55.8582C54.1916 55.8588 54.2099 55.8556 54.227 55.849L55.113 55.525C55.1304 55.5191 55.1464 55.5097 55.16 55.4975C55.1737 55.4852 55.1847 55.4703 55.1925 55.4537C55.2002 55.4371 55.2045 55.4191 55.2052 55.4007C55.2058 55.3824 55.2026 55.3641 55.196 55.347L54.665 53.887L54.883 53.702L55.712 54.866C55.754 54.923 55.811 54.903 55.807 54.832L55.665 53.047L55.804 52.93L56.51 54.868C56.5161 54.8852 56.5256 54.901 56.5379 54.9145C56.5502 54.9281 56.5651 54.939 56.5817 54.9467C56.5982 54.9544 56.6161 54.9588 56.6344 54.9595C56.6527 54.9603 56.6709 54.9574 56.688 54.951L57.574 54.627C57.5915 54.6216 57.6076 54.6125 57.6215 54.6006C57.6353 54.5886 57.6465 54.5739 57.6544 54.5573C57.6623 54.5408 57.6667 54.5228 57.6673 54.5045C57.6679 54.4863 57.6648 54.468 57.658 54.451L56.8 52.094L57.523 51.489L58.491 54.149C58.497 54.1663 58.5065 54.1822 58.5187 54.1958C58.531 54.2094 58.5459 54.2204 58.5625 54.2281C58.5791 54.2358 58.597 54.2402 58.6153 54.2408C58.6336 54.2415 58.6519 54.2385 58.669 54.232L59.49 53.931C59.5074 53.925 59.5234 53.9155 59.5371 53.9032C59.5508 53.8909 59.5619 53.8759 59.5698 53.8592C59.5776 53.8425 59.582 53.8245 59.5827 53.806C59.5835 53.7876 59.5805 53.7693 59.574 53.752L58.464 50.698L59.697 49.661L60.998 53.234C61.0111 53.268 61.0368 53.2957 61.0698 53.3112C61.1028 53.3266 61.1405 53.3287 61.175 53.317L61.997 53.018C62.0143 53.012 62.0302 53.0026 62.0438 52.9903C62.0574 52.978 62.0683 52.9631 62.0761 52.9465C62.0838 52.9299 62.0882 52.912 62.0888 52.8937C62.0895 52.8754 62.0865 52.8571 62.08 52.84L60.637 48.872L68.718 42.087C68.867 42.24 68.998 42.416 69.077 42.632ZM24.151 41.323L50.153 19.489C51.1146 20.1765 52.2255 20.626 53.3946 20.8005C54.5637 20.9751 55.7576 20.8697 56.878 20.493C57.2897 20.6452 57.729 20.7086 58.167 20.679L58.17 20.682C57.94 21.622 58.144 22.658 58.813 23.453C59.13 23.8326 59.5325 24.1317 59.9873 24.3259C60.4422 24.52 60.9366 24.6037 61.43 24.57L61.433 24.573C61.3138 25.0531 61.3098 25.5545 61.4212 26.0364C61.5326 26.5183 61.7564 26.9671 62.0742 27.3461C62.392 27.7251 62.7949 28.0237 63.25 28.2174C63.7051 28.4112 64.1995 28.4946 64.693 28.461L64.696 28.464C64.5771 28.944 64.5732 29.4454 64.6847 29.9272C64.7962 30.409 65.02 30.8577 65.3377 31.2367C65.6555 31.6156 66.0583 31.9142 66.5132 32.108C66.9682 32.3018 67.4626 32.3854 67.956 32.352L67.98 32.38C67.8887 32.7811 67.8762 33.1961 67.943 33.602C67.3593 34.6443 67.0356 35.812 66.9993 37.006C66.9631 38.2001 67.2155 39.3853 67.735 40.461L41.735 62.292C40.4654 61.3846 38.9435 60.8975 37.383 60.899C36.2684 60.9 35.1681 61.1494 34.162 61.629L23.488 48.903C24.2619 47.8124 24.7313 46.5352 24.8478 45.203C24.9644 43.8707 24.7238 42.5315 24.151 41.323ZM78.364 56.688C77.459 57.4676 76.7555 58.4539 76.313 59.5634C75.8704 60.6728 75.702 61.8726 75.822 63.061L43.929 74.679C43.1709 73.5787 42.133 72.7006 40.9224 72.1351C39.7118 71.5696 38.3723 71.3373 37.042 71.462L34.242 63.768C35.1336 63.1541 36.1848 62.8135 37.267 62.788L39.859 69.917C40.1428 70.6937 40.7231 71.3261 41.4726 71.6756C42.2221 72.025 43.0796 72.0629 43.857 71.781L74.021 60.794C74.7978 60.51 75.4302 59.9295 75.7797 59.1798C76.1291 58.4302 76.167 57.5725 75.885 56.795L70.54 42.1C70.3993 41.7234 70.1848 41.3786 69.909 41.086L70.195 40.846C69.9513 40.5502 69.7385 40.2302 69.56 39.891C70.456 40.301 71.426 40.557 72.444 40.583C72.778 40.865 73.169 41.076 73.594 41.198C73.5042 41.3335 73.4246 41.4766 73.356 41.624C73.1806 41.9978 73.0812 42.4026 73.0633 42.8151C73.0454 43.2276 73.1096 43.6395 73.252 44.027C73.422 44.4907 73.6985 44.908 74.0592 45.2453C74.42 45.5827 74.8549 45.8305 75.329 45.969L75.331 45.976C75.0564 46.387 74.8821 46.8568 74.8222 47.3474C74.7623 47.8381 74.8184 48.336 74.986 48.801C75.1569 49.2643 75.4338 49.6813 75.7947 50.0185C76.1555 50.3557 76.5902 50.6038 77.064 50.743L77.066 50.748C76.7914 51.1593 76.6173 51.6293 76.5578 52.1201C76.4982 52.611 76.5548 53.109 76.723 53.574C76.8936 54.0374 77.1703 54.4543 77.531 54.7916C77.8916 55.1288 78.3262 55.3769 78.8 55.516L78.813 55.551C78.5924 55.898 78.44 56.2839 78.364 56.688Z" fill="black"/>
<path d="M36.281 59.214C36.8133 59.8471 37.5749 60.2432 38.3989 60.3153C39.2228 60.3875 40.0418 60.1299 40.676 59.599L65.266 38.95C65.8985 38.4171 66.2941 37.6554 66.3662 36.8315C66.4384 36.0076 66.1812 35.1887 65.651 34.554L55.605 22.573C55.0732 21.9398 54.3119 21.5436 53.4882 21.4714C52.6645 21.3992 51.8458 21.657 51.212 22.188L26.62 42.837C25.9875 43.3699 25.5919 44.1317 25.5199 44.9557C25.4479 45.7796 25.7054 46.5985 26.236 47.233L36.281 59.214ZM27.623 44.033L52.214 23.383C52.5311 23.1178 52.9404 22.9891 53.3522 23.025C53.764 23.061 54.1447 23.2588 54.411 23.575L64.456 35.554C65.009 36.214 64.922 37.2 64.264 37.753L39.672 58.403C39.3553 58.6681 38.9463 58.7968 38.5348 58.7608C38.1233 58.7248 37.7429 58.5271 37.477 58.211L27.431 46.23C27.1658 45.9129 27.0371 45.5036 27.0731 45.0918C27.109 44.68 27.3068 44.2993 27.623 44.033Z" fill="black"/>
<path d="M39.124 45.807C39.167 45.874 39.243 45.889 39.303 45.837L39.991 45.263C40.051 45.211 40.057 45.127 40.014 45.061L39.391 44.195L39.86 43.803L40.602 44.568C40.661 44.621 40.744 44.629 40.805 44.578L41.49 44.003C41.553 43.952 41.551 43.874 41.492 43.82L36.676 39.225C36.6476 39.199 36.6107 39.1842 36.5722 39.1835C36.5337 39.1828 36.4963 39.1961 36.467 39.221L35.471 40.057C35.4413 40.0815 35.4218 40.1161 35.416 40.1541C35.4103 40.1921 35.4188 40.2309 35.44 40.263L39.124 45.807ZM37.231 41.084L39.089 43.009L38.743 43.3L37.171 41.134L37.231 41.084ZM41.988 43.402C42.039 43.462 42.124 43.47 42.183 43.419L43.314 42.469C43.5645 42.2564 43.7209 41.9536 43.7494 41.6263C43.7779 41.2989 43.676 40.9736 43.466 40.721L41.265 38.096C41.053 37.8453 40.7506 37.6885 40.4235 37.6598C40.0964 37.6311 39.7713 37.7329 39.519 37.943L38.385 38.892C38.3711 38.9036 38.3596 38.9179 38.3513 38.934C38.343 38.9502 38.338 38.9678 38.3366 38.9858C38.3352 39.0039 38.3375 39.0221 38.3432 39.0393C38.3489 39.0565 38.358 39.0724 38.37 39.086L41.988 43.402ZM40.082 38.845C40.1305 38.8057 40.1924 38.7869 40.2546 38.7925C40.3167 38.7981 40.3743 38.8277 40.415 38.875L42.554 41.425C42.5929 41.4731 42.6117 41.5344 42.6065 41.5961C42.6013 41.6578 42.5724 41.7151 42.526 41.756L42.284 41.959L39.842 39.047L40.082 38.845ZM44.779 41.06C44.829 41.12 44.913 41.127 44.973 41.077L45.697 40.47C45.7111 40.4586 45.7229 40.4444 45.7314 40.4284C45.74 40.4124 45.7452 40.3947 45.7468 40.3766C45.7484 40.3585 45.7463 40.3403 45.7407 40.323C45.735 40.3057 45.7259 40.2897 45.714 40.276L44.031 38.27L46.034 39.647C46.094 39.686 46.139 39.649 46.111 39.583L45.102 37.37L46.784 39.377C46.834 39.437 46.919 39.444 46.978 39.395L47.702 38.788C47.7162 38.7766 47.7281 38.7624 47.7367 38.7463C47.7454 38.7302 47.7507 38.7125 47.7524 38.6943C47.7541 38.6761 47.7521 38.6578 47.7465 38.6404C47.7409 38.623 47.7319 38.6068 47.72 38.593L44.101 34.278C44.0896 34.2638 44.0755 34.252 44.0595 34.2433C44.0435 34.2347 44.0259 34.2293 44.0078 34.2276C43.9897 34.226 43.9714 34.228 43.9541 34.2335C43.9368 34.2391 43.9207 34.2481 43.907 34.26L43.266 34.798C43.205 34.849 43.198 34.946 43.227 35.013L44.579 37.837L42.035 36.012C41.977 35.971 41.878 35.963 41.819 36.013L41.178 36.551C41.1638 36.5625 41.1521 36.5767 41.1435 36.5928C41.1349 36.6089 41.1296 36.6266 41.128 36.6447C41.1263 36.6629 41.1283 36.6812 41.1337 36.6986C41.1392 36.716 41.1482 36.7321 41.16 36.746L44.779 41.06ZM48.398 38.021C48.448 38.082 48.531 38.088 48.592 38.039L49.263 37.476C49.2772 37.4644 49.289 37.4501 49.2975 37.4339C49.3061 37.4177 49.3114 37.3999 49.313 37.3816C49.3145 37.3633 49.3124 37.3449 49.3068 37.3275C49.3011 37.31 49.292 37.2939 49.28 37.28L45.662 32.965C45.6505 32.9508 45.6362 32.9391 45.6201 32.9305C45.604 32.9219 45.5863 32.9167 45.5681 32.9151C45.5499 32.9135 45.5315 32.9156 45.5142 32.9213C45.4968 32.9269 45.4807 32.936 45.467 32.948L44.797 33.511C44.7826 33.5223 44.7706 33.5365 44.7619 33.5526C44.7531 33.5687 44.7478 33.5864 44.7461 33.6046C44.7444 33.6229 44.7464 33.6413 44.7521 33.6587C44.7578 33.6761 44.7669 33.6922 44.779 33.706L48.398 38.021ZM46.751 33.192C46.7626 33.2061 46.777 33.2178 46.7932 33.2263C46.8094 33.2348 46.8272 33.24 46.8454 33.2416C46.8636 33.2431 46.882 33.2411 46.8995 33.2355C46.9169 33.2299 46.933 33.2209 46.947 33.209L47.473 32.767L50.441 36.305C50.4647 36.3329 50.4983 36.3504 50.5348 36.3538C50.5712 36.3571 50.6076 36.3461 50.636 36.323L51.306 35.76C51.3201 35.7485 51.3318 35.7343 51.3404 35.7182C51.349 35.7021 51.3543 35.6845 51.356 35.6663C51.3576 35.6481 51.3557 35.6298 51.3502 35.6124C51.3447 35.595 51.3358 35.5789 51.324 35.565L48.355 32.026L48.891 31.577C48.9053 31.5657 48.9172 31.5516 48.9258 31.5355C48.9344 31.5194 48.9397 31.5017 48.9412 31.4835C48.9427 31.4653 48.9404 31.447 48.9345 31.4297C48.9286 31.4124 48.9193 31.3965 48.907 31.383L48.344 30.712C48.3328 30.6977 48.3188 30.6858 48.3029 30.677C48.287 30.6683 48.2694 30.663 48.2514 30.6613C48.2333 30.6596 48.215 30.6616 48.1978 30.6672C48.1805 30.6729 48.1646 30.682 48.151 30.694L46.206 32.328C46.192 32.3395 46.1804 32.3537 46.1719 32.3697C46.1634 32.3857 46.1581 32.4032 46.1565 32.4212C46.1548 32.4393 46.1567 32.4575 46.1621 32.4748C46.1675 32.4921 46.1763 32.5081 46.188 32.522L46.751 33.192ZM45.284 43.518C45.0717 43.2676 44.7693 43.1109 44.4423 43.0819C44.1153 43.0529 43.79 43.1539 43.537 43.363L43.25 43.605C42.9995 43.8176 42.843 44.1204 42.8145 44.4477C42.7861 44.7751 42.8879 45.1004 43.098 45.353L46.022 48.838C46.2338 49.0888 46.5361 49.2458 46.8631 49.2748C47.1901 49.3039 47.5153 49.2026 47.768 48.993L48.054 48.751C48.575 48.314 48.644 47.522 48.206 47.003L45.284 43.518ZM47.264 48.04L47.203 48.091C47.1547 48.1298 47.0933 48.1484 47.0316 48.143C46.97 48.1376 46.9127 48.1086 46.872 48.062L44.011 44.65C43.9718 44.6015 43.9529 44.5397 43.9584 44.4777C43.9638 44.4156 43.993 44.358 44.04 44.317L44.101 44.267C44.1494 44.2273 44.2115 44.2081 44.2739 44.2135C44.3363 44.2189 44.3941 44.2485 44.435 44.296L47.295 47.706C47.3335 47.7551 47.3517 47.8171 47.346 47.8792C47.3402 47.9413 47.3109 47.9988 47.264 48.04ZM48.268 40.946C48.2568 40.9317 48.2428 40.9198 48.2269 40.911C48.211 40.9023 48.1934 40.897 48.1754 40.8953C48.1573 40.8936 48.139 40.8956 48.1218 40.9012C48.1045 40.9069 48.0886 40.916 48.075 40.928L47.405 41.492C47.3905 41.5033 47.3784 41.5174 47.3696 41.5335C47.3607 41.5496 47.3553 41.5673 47.3536 41.5856C47.3519 41.6039 47.354 41.6223 47.3598 41.6398C47.3655 41.6572 47.3748 41.6733 47.387 41.687L49.221 43.874L46.597 42.336C46.536 42.297 46.431 42.31 46.37 42.359L45.872 42.777C45.811 42.829 45.806 42.91 45.856 42.972L49.475 47.286C49.524 47.346 49.607 47.355 49.667 47.303L50.338 46.74C50.3522 46.7288 50.364 46.7147 50.3727 46.6988C50.3813 46.6828 50.3866 46.6653 50.3882 46.6472C50.3898 46.6291 50.3876 46.6109 50.3819 46.5937C50.3762 46.5764 50.367 46.5606 50.355 46.547L48.711 44.585L51.161 45.883C51.22 45.922 51.327 45.91 51.386 45.861L51.869 45.455C51.8831 45.4437 51.8948 45.4296 51.9034 45.4137C51.9119 45.3977 51.9171 45.3802 51.9187 45.3621C51.9203 45.3441 51.9182 45.3259 51.9126 45.3087C51.907 45.2915 51.8979 45.2756 51.886 45.262L48.268 40.946ZM50.6 38.809L48.964 40.182C48.9499 40.1935 48.9383 40.2077 48.9298 40.2237C48.9213 40.2398 48.9162 40.2573 48.9146 40.2754C48.913 40.2935 48.915 40.3117 48.9206 40.329C48.9262 40.3463 48.9351 40.3622 48.947 40.376L52.565 44.692C52.617 44.752 52.699 44.759 52.76 44.709L54.394 43.335C54.4086 43.324 54.4207 43.3101 54.4296 43.2942C54.4385 43.2783 54.444 43.2607 54.4456 43.2425C54.4473 43.2243 54.4452 43.206 54.4394 43.1887C54.4336 43.1714 54.4243 43.1555 54.412 43.142L53.849 42.469C53.8376 42.4548 53.8234 42.4431 53.8074 42.4346C53.7913 42.426 53.7737 42.4208 53.7556 42.4192C53.7375 42.4176 53.7192 42.4197 53.7019 42.4253C53.6846 42.431 53.6687 42.44 53.655 42.452L52.796 43.174L51.942 42.156L52.689 41.528C52.703 41.5167 52.7145 41.5027 52.723 41.4868C52.7314 41.4709 52.7366 41.4535 52.7382 41.4356C52.7398 41.4177 52.7378 41.3996 52.7322 41.3825C52.7267 41.3654 52.7178 41.3496 52.706 41.336L52.143 40.664C52.1318 40.6495 52.1178 40.6375 52.1018 40.6287C52.0858 40.6198 52.0681 40.6144 52.0499 40.6127C52.0317 40.611 52.0133 40.6131 51.996 40.6188C51.9786 40.6246 51.9626 40.6338 51.949 40.646L51.203 41.272L50.481 40.413L51.34 39.692C51.3544 39.6806 51.3663 39.6663 51.3751 39.6502C51.3839 39.634 51.3892 39.6162 51.3909 39.5979C51.3926 39.5795 51.3906 39.5611 51.3849 39.5435C51.3792 39.526 51.3701 39.5099 51.358 39.496L50.795 38.826C50.7836 38.8117 50.7694 38.7998 50.7532 38.7912C50.7371 38.7825 50.7194 38.7772 50.7011 38.7756C50.6829 38.7741 50.6645 38.7762 50.6471 38.7819C50.6297 38.7877 50.6137 38.7969 50.6 38.809Z" fill="black"/>
</g>
<defs>
<filter id="filter0_d_92_510" x="0" y="0" width="103" height="103" filterUnits="userSpaceOnUse" color-interpolation-filters="sRGB">
<feFlood flood-opacity="0" result="BackgroundImageFix"/>
<feColorMatrix in="SourceAlpha" type="matrix" values="0 0 0 0 0 0 0 0 0 0 0 0 0 0 0 0 0 0 127 0" result="hardAlpha"/>
<feOffset dy="4"/>
<feGaussianBlur stdDeviation="2"/>
<feComposite in2="hardAlpha" operator="out"/>
<feColorMatrix type="matrix" values="0 0 0 0 0 0 0 0 0 0 0 0 0 0 0 0 0 0 0.25 0"/>
<feBlend mode="normal" in2="BackgroundImageFix" result="effect1_dropShadow_92_510"/>
<feBlend mode="normal" in="SourceGraphic" in2="effect1_dropShadow_92_510" result="shape"/>
</filter>
</defs>
</svg>
